<?xml version="1.0" encoding="UTF-8" standalone="no"?>
<!-- Created with Inkscape (http://www.inkscape.org/) -->

<svg
   width="1000"
   height="600"
   viewBox="0 0 264.58331 158.75"
   version="1.1"
   id="svg19255"
   inkscape:version="1.2.1 (9c6d41e410, 2022-07-14)"
   sodipodi:docname="irdpl-translathon.svg"
   xmlns:inkscape="http://www.inkscape.org/namespaces/inkscape"
   xmlns:sodipodi="http://sodipodi.sourceforge.net/DTD/sodipodi-0.dtd"
   xmlns="http://www.w3.org/2000/svg"
   xmlns:svg="http://www.w3.org/2000/svg">
  <sodipodi:namedview
     id="namedview19257"
     pagecolor="#ffffff"
     bordercolor="#000000"
     borderopacity="0.25"
     inkscape:showpageshadow="2"
     inkscape:pageopacity="0.0"
     inkscape:pagecheckerboard="0"
     inkscape:deskcolor="#d1d1d1"
     inkscape:document-units="mm"
     showgrid="false"
     inkscape:zoom="0.45101915"
     inkscape:cx="953.39633"
     inkscape:cy="490.00137"
     inkscape:window-width="1920"
     inkscape:window-height="991"
     inkscape:window-x="-9"
     inkscape:window-y="-9"
     inkscape:window-maximized="1"
     inkscape:current-layer="layer1"
     showguides="true">
    <sodipodi:guide
       position="15.252492,59.022157"
       orientation="1,0"
       id="guide444"
       inkscape:locked="false" />
  </sodipodi:namedview>
  <defs
     id="defs19252" />
  <g
     inkscape:label="Warstwa 1"
     inkscape:groupmode="layer"
     id="layer1">
    <rect
       style="fill:#800066;fill-opacity:1;stroke-width:1.4958"
       id="rect1393"
       width="264.58334"
       height="158.75"
       x="1.224321"
       y="7.2223145e-07"
       inkscape:export-filename="translathon.png"
       inkscape:export-xdpi="96"
       inkscape:export-ydpi="96" />
    <text
       xml:space="preserve"
       style="font-style:normal;font-variant:normal;font-weight:normal;font-stretch:normal;font-size:245.69px;line-height:1.22;font-family:Haettenschweiler;-inkscape-font-specification:'Haettenschweiler, Normal';font-variant-ligatures:normal;font-variant-caps:normal;font-variant-numeric:normal;font-variant-east-asian:normal;fill:#ffffff;fill-opacity:1;stroke-width:8.42482"
       x="5.2255321"
       y="215.7045"
       id="text11667"
       transform="scale(2.383341,0.41957907)"><tspan
         sodipodi:role="line"
         style="font-style:normal;font-variant:normal;font-weight:normal;font-stretch:normal;font-size:245.69px;font-family:Haettenschweiler;-inkscape-font-specification:'Haettenschweiler, Normal';font-variant-ligatures:normal;font-variant-caps:normal;font-variant-numeric:normal;font-variant-east-asian:normal;fill:#ffffff;stroke-width:8.42482"
         x="5.2255321"
         y="215.7045"
         id="tspan11665" /></text>
    <text
       xml:space="preserve"
       style="font-style:normal;font-variant:normal;font-weight:normal;font-stretch:normal;font-size:48.5392px;line-height:0;font-family:Haettenschweiler;-inkscape-font-specification:'Haettenschweiler, Normal';font-variant-ligatures:normal;font-variant-caps:normal;font-variant-numeric:normal;font-variant-east-asian:normal;fill:#ffffff;fill-opacity:1;stroke-width:1.66442"
       x="13.63947"
       y="49.616463"
       id="text1812"
       transform="scale(1.1350829,0.88099293)"><tspan
         sodipodi:role="line"
         style="font-style:normal;font-variant:normal;font-weight:normal;font-stretch:normal;font-size:48.5392px;line-height:0.92;font-family:Haettenschweiler;-inkscape-font-specification:'Haettenschweiler, Normal';font-variant-ligatures:normal;font-variant-caps:normal;font-variant-numeric:normal;font-variant-east-asian:normal;fill:#ffffff;stroke-width:1.66442"
         x="13.63947"
         y="49.616463"
         id="tspan11661">TRANSLATHON</tspan><tspan
         style="font-style:normal;font-variant:normal;font-weight:normal;font-stretch:normal;font-size:48.5392px;line-height:0.92;font-family:Haettenschweiler;-inkscape-font-specification:'Haettenschweiler, Normal';font-variant-ligatures:normal;font-variant-caps:normal;font-variant-numeric:normal;font-variant-east-asian:normal;fill:#ffffff;stroke-width:1.66442"
         sodipodi:role="line"
         id="tspan489"
         x="13.63947"
         y="94.27253">WCAG</tspan></text>
    <text
       xml:space="preserve"
       style="font-style:normal;font-variant:normal;font-weight:normal;font-stretch:normal;font-size:16.9333px;line-height:0.75;font-family:Haettenschweiler;-inkscape-font-specification:'Haettenschweiler, Normal';font-variant-ligatures:normal;font-variant-caps:normal;font-variant-numeric:normal;font-variant-east-asian:normal;text-align:end;text-anchor:end;fill:#ffffff;fill-opacity:1;stroke-width:1.75143"
       x="13.530743"
       y="171.68248"
       id="text11671"
       transform="scale(1.1944215,0.83722538)"><tspan
         sodipodi:role="line"
         style="font-style:normal;font-variant:normal;font-weight:normal;font-stretch:normal;font-size:16.9333px;font-family:Haettenschweiler;-inkscape-font-specification:'Haettenschweiler, Normal';font-variant-ligatures:normal;font-variant-caps:normal;font-variant-numeric:normal;font-variant-east-asian:normal;text-align:start;text-anchor:start;fill:#ffffff;stroke-width:1.75143"
         x="13.530743"
         y="171.68248"
         id="tspan11673">12-16 kwietnia 2023 r.</tspan></text>
    <g
       id="g20973"
       transform="translate(136.28462,4.7764184)">
      <g
         id="g19236"
         transform="matrix(0.22427913,0,0,0.22427913,21.090061,44.041809)">
        <path
           style="opacity:1;fill:#8ab958;fill-opacity:1;fill-rule:nonzero;stroke:none;stroke-width:2.87315;stroke-linecap:round;stroke-linejoin:miter;stroke-miterlimit:4;stroke-dasharray:none;stroke-dashoffset:0;stroke-opacity:1"
           d="m 165.51439,24.704089 25.24172,113.230401 22.22225,96.29641 203.42691,-45.38081 V 58.530547 c 0,-18.739893 -15.08654,-33.826458 -33.82646,-33.826458 z"
           id="path4171"
           inkscape:connector-curvature="0"
           inkscape:export-xdpi="89"
           inkscape:export-ydpi="89"
           inkscape:export-filename="C:\Users\zwias_000\Downloads\logo_JAT_v2.png" />
        <path
           style="opacity:1;fill:#eba757;fill-opacity:1;fill-rule:nonzero;stroke:none;stroke-width:2.87315;stroke-linecap:round;stroke-linejoin:miter;stroke-miterlimit:4;stroke-dasharray:none;stroke-dashoffset:0;stroke-opacity:1"
           d="m 416.90378,185.98483 -203.08339,45.30325 45.23399,202.93658 h 124.02296 c 18.73991,0 33.82644,-15.08655 33.82644,-33.82646 z"
           id="rect4168"
           inkscape:connector-curvature="0"
           inkscape:export-xdpi="89"
           inkscape:export-ydpi="89"
           inkscape:export-filename="C:\Users\zwias_000\Downloads\logo_JAT_v2.png" />
        <path
           style="opacity:1;fill:#d85237;fill-opacity:1;fill-rule:nonzero;stroke:none;stroke-width:2.87315;stroke-linecap:round;stroke-linejoin:miter;stroke-miterlimit:4;stroke-dasharray:none;stroke-dashoffset:0;stroke-opacity:1"
           d="M 213.106,228.55798 10.307928,273.79751 v 123.87055 c 0,18.74003 15.086549,33.82644 33.826459,33.82644 H 258.34 Z"
           id="path4180"
           inkscape:connector-curvature="0"
           inkscape:export-xdpi="89"
           inkscape:export-ydpi="89"
           inkscape:export-filename="C:\Users\zwias_000\Downloads\logo_JAT_v2.png" />
        <path
           id="path4183"
           d="m 44.214726,21.966916 c -18.739909,0 -33.826461,15.086549 -33.826461,33.826446 V 276.65571 L 213.18635,231.41616 166.49803,21.966916 Z"
           style="opacity:1;fill:#5e90c7;fill-opacity:1;fill-rule:nonzero;stroke:none;stroke-width:2.87315;stroke-linecap:round;stroke-linejoin:miter;stroke-miterlimit:4;stroke-dasharray:none;stroke-dashoffset:0;stroke-opacity:1"
           inkscape:connector-curvature="0"
           inkscape:export-xdpi="89"
           inkscape:export-ydpi="89"
           inkscape:export-filename="C:\Users\zwias_000\Downloads\logo_JAT_v2.png" />
      </g>
      <g
         id="g20963"
         transform="translate(2.2736856,-8.056107e-4)">
        <path
           id="path20888"
           style="fill:#ffffff;stroke:none;stroke-width:3.0169"
           d="m 73.145734,56.092609 c -0.15965,-1e-5 -0.318205,0.005 -0.475758,0.0134 v 17.49501 c 0.158258,0.009 0.316999,0.015 0.475758,0.0154 4.838935,-4.9e-4 8.761734,-3.92344 8.761418,-8.76237 -2.04e-4,-4.83847 -3.922891,-8.76011 -8.761418,-8.76045 z m 27.989716,16.16938 c -0.069,-4.9e-4 -0.13821,0.001 -0.20815,0.005 -5.856054,0.41515 -11.559282,1.971 -17.350179,2.87283 -3.446911,0.72461 -7.061099,1.04638 -10.642416,1.02923 -0.08817,4.3e-4 -0.176504,-0.002 -0.264729,-0.002 v 29.099501 c 0.0864,-0.28819 0.173423,-0.57513 0.261852,-0.85945 1.648845,5.30074 2.901713,11.31323 5.450231,16.531 l -5.450231,2.86131 -0.261852,-0.13717 v 10.35466 l 0.201433,0.095 v 0.0101 l 0.04988,0.0258 0.01151,-0.003 0.01336,0.003 0.04988,-0.0258 v -0.0101 l 5.230552,-2.4642 26.576789,-12.59921 0.11991,-42.386451 c -0.0126,-2.43109 -1.65067,-4.38466 -3.78791,-4.39989 z m -5.296765,9.84435 c 0.09058,10.78224 -0.165386,21.610611 -0.154434,29.970461 l -9.751302,5.15191 c -4.342461,-11.12442 -5.336744,-22.680211 -5.354304,-32.165131 5.927289,-0.56009 9.016699,-1.21332 15.26004,-2.95724 z" />
        <path
           style="fill:#ffffff;stroke-width:3.30255"
           d="m 67.632951,56.092609 c -0.12219,0 -0.24439,0.0132 -0.36658,0.0132 h -1.0337 v 0.0396 c -7.74779,0.27742 -14.92423,2.80717 -20.89854,6.96508 h -0.52841 c 0,0.13541 0.0132,0.26421 0.0198,0.39301 -3.4974,2.52315 -6.57207,5.60773 -9.0622,9.12825 -0.40621,0.55813 -0.78931,1.14598 -1.16249,1.73384 -0.99407,1.5555 -1.86925,3.18365 -2.63214,4.87786 -1.50926,3.35539 -2.54296,6.95848 -3.05156,10.7399 -0.23117,1.70742 -0.393,3.44456 -0.393,5.21142 0,21.565671 17.54645,39.112121 39.10881,39.112121 0.0859,0 0.168435,-0.0132 0.250995,-0.0132 v -0.25759 h 1.65128 V 56.109089 h -1.65128 c -0.0826,-0.003 -0.16512,-0.0165 -0.250995,-0.0165 z m -5.86533,6.43668 c -3.51061,3.2464 -6.48621,7.16983 -8.74516,11.59195 -1.54559,-2.00135 -2.68497,-4.32304 -3.28603,-6.8561 3.59978,-2.32169 7.66522,-3.94654 12.03119,-4.73585 z m -15.83243,7.56944 c 1.05351,3.21999 2.82368,6.10972 5.10905,8.49416 -1.70082,4.52449 -2.68828,9.43208 -2.82368,14.58076 -4.61037,-2.94257 -8.37858,-6.89903 -10.87531,-11.53911 1.99805,-4.45184 4.93732,-8.37527 8.58994,-11.53581 z m -11.5226,25.10269 c 0,-3.05486 0.44584,-6.00734 1.22525,-8.83102 3.16714,4.67971 7.52651,8.58993 12.68179,11.41031 0.43264,5.842211 1.96832,11.324461 4.37918,16.235351 -8.58663,-3.64271 -15.27429,-10.37002 -18.27301,-18.623091 0,-0.0628 -0.0132,-0.1222 -0.0132,-0.19155 z m 28.92044,32.929741 c -12.18972,-1.58852 -22.31204,-9.80527 -26.63838,-20.91506 4.82173,5.71342 11.49948,10.05628 19.19113,12.23926 2.08391,3.01853 4.51789,5.72002 7.2557,8.0252 0.28732,0.11559 0.58125,0.19815 0.87848,0.29393 -0.23118,0.1321 -0.45575,0.23778 -0.68693,0.35667 z m 2.89964,-3.85738 c -1.31442,-1.08653 -2.5859,-2.23252 -3.74179,-3.51721 1.22194,0.1387 2.48352,0.18824 3.74179,0.21797 z m 0,-7.37129 c -2.52315,-0.0661 -4.99016,-0.33686 -7.35809,-0.87848 -3.02183,-4.67971 -5.09253,-10.14544 -5.89505,-16.073521 4.09847,1.568711 8.57012,2.460401 13.25314,2.579291 z m 0,-18.306051 c -4.86466,-0.1354 -9.47502,-1.20213 -13.60321,-3.04495 -0.0132,-0.3831 -0.0363,-0.75629 -0.0363,-1.13938 0,-4.47826 0.72656,-8.77818 2.06079,-12.76766 3.31907,2.27876 7.29534,3.63941 11.57875,3.83426 z m 0,-17.56297 c -3.69886,-0.20806 -7.1137,-1.48945 -9.88454,-3.61628 2.36133,-5.06612 5.77617,-9.40897 9.88454,-12.80399 z"
           id="path20684" />
      </g>
    </g>
    <text
       xml:space="preserve"
       style="font-style:normal;font-variant:normal;font-weight:normal;font-stretch:normal;font-size:48.5392px;line-height:1.22;font-family:Haettenschweiler;-inkscape-font-specification:'Haettenschweiler, Normal';font-variant-ligatures:normal;font-variant-caps:normal;font-variant-numeric:normal;font-variant-east-asian:normal;fill:#ffffff;fill-opacity:1;stroke-width:1.66442"
       x="13.63947"
       y="95.895027"
       id="text471"
       transform="scale(1.1350829,0.88099293)"><tspan
         sodipodi:role="line"
         style="font-style:normal;font-variant:normal;font-weight:normal;font-stretch:normal;font-size:48.5392px;font-family:Haettenschweiler;-inkscape-font-specification:'Haettenschweiler, Normal';font-variant-ligatures:normal;font-variant-caps:normal;font-variant-numeric:normal;font-variant-east-asian:normal;fill:#ffffff;stroke-width:1.66442"
         x="13.63947"
         y="95.895027"
         id="tspan469" /></text>
    <text
       xml:space="preserve"
       style="font-style:normal;font-variant:normal;font-weight:normal;font-stretch:normal;font-size:48.5392px;line-height:1.22;font-family:Haettenschweiler;-inkscape-font-specification:'Haettenschweiler, Normal';font-variant-ligatures:normal;font-variant-caps:normal;font-variant-numeric:normal;font-variant-east-asian:normal;fill:#ffffff;fill-opacity:1;stroke-width:1.66442"
       x="13.63947"
       y="95.895027"
       id="text475"
       transform="scale(1.1350829,0.88099293)"><tspan
         sodipodi:role="line"
         style="font-style:normal;font-variant:normal;font-weight:normal;font-stretch:normal;font-size:48.5392px;font-family:Haettenschweiler;-inkscape-font-specification:'Haettenschweiler, Normal';font-variant-ligatures:normal;font-variant-caps:normal;font-variant-numeric:normal;font-variant-east-asian:normal;fill:#ffffff;stroke-width:1.66442"
         x="13.63947"
         y="95.895027"
         id="tspan473" /></text>
    <text
       xml:space="preserve"
       style="font-style:normal;font-variant:normal;font-weight:normal;font-stretch:normal;font-size:41.7357px;font-family:Haettenschweiler;-inkscape-font-specification:'Haettenschweiler, Normal';font-variant-ligatures:normal;font-variant-caps:normal;font-variant-numeric:normal;font-variant-east-asian:normal;fill:#ffffff;stroke-width:1.70633"
       x="16.633232"
       y="120.5096"
       id="text487"
       transform="scale(0.9831901,1.0170973)"><tspan
         sodipodi:role="line"
         id="tspan485"
         style="stroke-width:1.70633"
         x="16.633232"
         y="120.5096">CHALLENGE</tspan></text>
  </g>
</svg>
