<?xml version="1.0" encoding="UTF-8" standalone="no"?>
<!-- Created with Inkscape (http://www.inkscape.org/) -->

<svg
   version="1.1"
   id="svg2"
   width="128"
   height="128"
   viewBox="0 0 128 128"
   sodipodi:docname="ird.svg"
   inkscape:export-filename="ird.png"
   inkscape:export-xdpi="96"
   inkscape:export-ydpi="96"
   inkscape:version="1.2.1 (9c6d41e410, 2022-07-14)"
   xmlns:inkscape="http://www.inkscape.org/namespaces/inkscape"
   xmlns:sodipodi="http://sodipodi.sourceforge.net/DTD/sodipodi-0.dtd"
   xmlns="http://www.w3.org/2000/svg"
   xmlns:svg="http://www.w3.org/2000/svg">
  <defs
     id="defs6" />
  <sodipodi:namedview
     id="namedview4"
     pagecolor="#ffffff"
     bordercolor="#000000"
     borderopacity="0.25"
     inkscape:showpageshadow="2"
     inkscape:pageopacity="0.0"
     inkscape:pagecheckerboard="0"
     inkscape:deskcolor="#d1d1d1"
     showgrid="false"
     showguides="true"
     inkscape:zoom="6.7225296"
     inkscape:cx="55.931327"
     inkscape:cy="80.475659"
     inkscape:window-width="1920"
     inkscape:window-height="991"
     inkscape:window-x="-9"
     inkscape:window-y="-9"
     inkscape:window-maximized="1"
     inkscape:current-layer="g8">
    <sodipodi:guide
       position="19.915568,37.794192"
       orientation="1,0"
       id="guide358"
       inkscape:locked="false" />
    <sodipodi:guide
       position="142.45489,-52.177315"
       orientation="1,0"
       id="guide360"
       inkscape:locked="false" />
    <sodipodi:guide
       position="-79.427971,18.347225"
       orientation="1,0"
       id="guide362"
       inkscape:locked="false" />
    <sodipodi:guide
       position="19.860419,76.299861"
       orientation="0,-1"
       id="guide588"
       inkscape:locked="false" />
    <sodipodi:guide
       position="53.906849,155.11105"
       orientation="1,0"
       id="guide590"
       inkscape:locked="false" />
    <sodipodi:guide
       position="26.710291,-39.05647"
       orientation="1,0"
       id="guide592"
       inkscape:locked="false" />
    <sodipodi:guide
       position="269.8495,37.524761"
       orientation="1,0"
       id="guide4816"
       inkscape:locked="false" />
    <sodipodi:guide
       position="-33.544668,64.14946"
       orientation="1,0"
       id="guide515"
       inkscape:locked="false" />
    <sodipodi:guide
       position="64.520796,9.0284766"
       orientation="1,0"
       id="guide607"
       inkscape:locked="false" />
  </sodipodi:namedview>
  <g
     inkscape:groupmode="layer"
     inkscape:label="Image"
     id="g8">
    <path
       id="path4814"
       style="fill:#800066;stroke:none;stroke-width:4.81553"
       d="M 64.810547,2.046875 C 57.086661,2.0463603 50.824783,8.3073638 50.824219,16.03125 c 0.0095,4.611216 2.291323,8.921414 6.099609,11.521484 1.176844,0.811658 2.47118,1.438077 3.837891,1.857422 1.312505,0.399992 2.676729,0.604659 4.048828,0.607422 7.723886,-5.64e-4 13.98489,-6.262442 13.984375,-13.986328 C 78.794358,8.3081265 72.53367,2.0474388 64.810547,2.046875 Z M 19.789062,27.863281 c -3.572692,-0.183538 -6.357406,3.009927 -6.378906,7.015625 l 0.191406,67.656254 42.421876,20.11132 8.349609,3.9336 v 0.0156 l 0.08008,0.0371 0.01563,-0.008 0.01758,0.008 0.08008,-0.0371 v -0.0156 l 8.34961,-3.9336 42.421874,-20.11132 0.19141,-67.656254 c -0.0215,-4.005698 -2.80621,-7.199163 -6.37891,-7.015625 -9.347368,0.662451 -18.450147,3.146466 -27.693359,4.585938 -5.502084,1.156692 -11.27175,1.669939 -16.988281,1.642578 C 58.752858,34.119027 52.983875,33.60578 47.482422,32.449219 38.23921,31.009747 29.136434,28.525732 19.789062,27.863281 Z m 8.117188,15.705078 c 9.966572,2.783926 14.897897,3.826657 24.359375,4.720703 -0.02802,15.139731 -1.615511,33.585105 -8.546875,51.341797 L 28.154297,91.408203 C 28.171497,78.064298 27.76177,60.778776 27.90625,43.568359 Z m 73.12695,0 c 0.14448,17.210417 -0.26524,34.495939 -0.24804,47.839844 L 85.220703,99.630859 C 78.289336,81.874167 76.701847,63.428793 76.673828,48.289062 86.135309,47.395016 91.066635,46.352285 101.0332,43.568359 Z M 64.46875,79.164758 c 2.631801,8.461012 4.631296,18.057535 8.699219,26.386022 l -8.699219,4.56836 -8.697266,-4.56836 c 4.06783,-8.328289 6.06556,-17.925451 8.697266,-26.386022 z"
       sodipodi:nodetypes="ccccccccccccccccccccccccccccccccccccccccc" />
  </g>
</svg>
