<?xml version="1.0" encoding="UTF-8" standalone="no"?>
<!-- Created with Inkscape (http://www.inkscape.org/) -->

<svg
   version="1.1"
   id="svg2160"
   width="1000"
   height="600"
   viewBox="0 0 1000 600"
   sodipodi:docname="html_codesniffer.svg"
   inkscape:version="1.2.1 (9c6d41e410, 2022-07-14)"
   xmlns:inkscape="http://www.inkscape.org/namespaces/inkscape"
   xmlns:sodipodi="http://sodipodi.sourceforge.net/DTD/sodipodi-0.dtd"
   xmlns="http://www.w3.org/2000/svg"
   xmlns:svg="http://www.w3.org/2000/svg">
  <defs
     id="defs2164" />
  <sodipodi:namedview
     id="namedview2162"
     pagecolor="#ffffff"
     bordercolor="#000000"
     borderopacity="0.25"
     inkscape:showpageshadow="2"
     inkscape:pageopacity="0.0"
     inkscape:pagecheckerboard="0"
     inkscape:deskcolor="#d1d1d1"
     showgrid="false"
     inkscape:zoom="0.31583333"
     inkscape:cx="576.2533"
     inkscape:cy="94.986807"
     inkscape:window-width="1920"
     inkscape:window-height="991"
     inkscape:window-x="-9"
     inkscape:window-y="-9"
     inkscape:window-maximized="1"
     inkscape:current-layer="g2166" />
  <g
     inkscape:groupmode="layer"
     inkscape:label="Image"
     id="g2166">
    <rect
       style="fill:#800066;fill-opacity:1;stroke-width:5.65342"
       id="rect1393"
       width="1000.0001"
       height="600"
       x="-6.1035156e-05"
       y="0"
       inkscape:export-filename="..\..\..\irdpl-biblio1.png"
       inkscape:export-xdpi="96"
       inkscape:export-ydpi="96" />
    <g
       id="g2429"
       transform="translate(-1113.6385,-38.548532)">
      <g
         id="g1938"
         transform="matrix(3.7795276,0,0,3.7795276,1112.9834,29.185133)">
        <g
           id="g19236"
           transform="matrix(0.22427913,0,0,0.22427913,151.97817,46.326572)">
          <path
             style="opacity:1;fill:#8ab958;fill-opacity:1;fill-rule:nonzero;stroke:none;stroke-width:2.87315;stroke-linecap:round;stroke-linejoin:miter;stroke-miterlimit:4;stroke-dasharray:none;stroke-dashoffset:0;stroke-opacity:1"
             d="m 165.51439,24.704089 25.24172,113.230401 22.22225,96.29641 203.42691,-45.38081 V 58.530547 c 0,-18.739893 -15.08654,-33.826458 -33.82646,-33.826458 z"
             id="path4171"
             inkscape:connector-curvature="0"
             inkscape:export-xdpi="89"
             inkscape:export-ydpi="89"
             inkscape:export-filename="C:\Users\zwias_000\Downloads\logo_JAT_v2.png" />
          <path
             style="opacity:1;fill:#eba757;fill-opacity:1;fill-rule:nonzero;stroke:none;stroke-width:2.87315;stroke-linecap:round;stroke-linejoin:miter;stroke-miterlimit:4;stroke-dasharray:none;stroke-dashoffset:0;stroke-opacity:1"
             d="m 416.90378,185.98483 -203.08339,45.30325 45.23399,202.93658 h 124.02296 c 18.73991,0 33.82644,-15.08655 33.82644,-33.82646 z"
             id="rect4168"
             inkscape:connector-curvature="0"
             inkscape:export-xdpi="89"
             inkscape:export-ydpi="89"
             inkscape:export-filename="C:\Users\zwias_000\Downloads\logo_JAT_v2.png" />
          <path
             style="opacity:1;fill:#d85237;fill-opacity:1;fill-rule:nonzero;stroke:none;stroke-width:2.87315;stroke-linecap:round;stroke-linejoin:miter;stroke-miterlimit:4;stroke-dasharray:none;stroke-dashoffset:0;stroke-opacity:1"
             d="M 213.106,228.55798 10.307928,273.79751 v 123.87055 c 0,18.74003 15.086549,33.82644 33.826459,33.82644 H 258.34 Z"
             id="path4180"
             inkscape:connector-curvature="0"
             inkscape:export-xdpi="89"
             inkscape:export-ydpi="89"
             inkscape:export-filename="C:\Users\zwias_000\Downloads\logo_JAT_v2.png" />
          <path
             id="path4183"
             d="m 44.214726,21.966916 c -18.739909,0 -33.826461,15.086549 -33.826461,33.826446 V 276.65571 L 213.18635,231.41616 166.49803,21.966916 Z"
             style="opacity:1;fill:#5e90c7;fill-opacity:1;fill-rule:nonzero;stroke:none;stroke-width:2.87315;stroke-linecap:round;stroke-linejoin:miter;stroke-miterlimit:4;stroke-dasharray:none;stroke-dashoffset:0;stroke-opacity:1"
             inkscape:connector-curvature="0"
             inkscape:export-xdpi="89"
             inkscape:export-ydpi="89"
             inkscape:export-filename="C:\Users\zwias_000\Downloads\logo_JAT_v2.png" />
        </g>
        <path
           id="path4814"
           style="fill:#f2f2f2;stroke:none;stroke-width:2.91402"
           d="m 199.37336,59.016954 c -4.67387,-2.99e-4 -8.46311,3.788385 -8.46348,8.462316 0.006,2.790372 1.38652,5.398585 3.69103,6.971958 0.71217,0.491158 1.49539,0.870217 2.32241,1.123977 0.79422,0.242043 1.61974,0.365888 2.45004,0.367566 4.67394,-4.5e-4 8.46264,-3.789563 8.46233,-8.463501 -2.2e-4,-4.673464 -3.78883,-8.461979 -8.46233,-8.462316 z m -27.24364,15.622194 c -2.16194,-0.111073 -3.84705,1.821387 -3.86004,4.24534 l 0.11578,40.940612 25.67055,12.16992 5.05256,2.38031 v 0.008 l 0.0484,0.0224 0.008,-0.004 0.0106,0.004 0.0484,-0.0224 v -0.008 l 5.05258,-2.38031 25.67061,-12.16992 0.11578,-40.940612 c -0.0133,-2.423953 -1.69811,-4.356409 -3.86004,-4.24534 -5.65637,0.400864 -11.16465,1.904011 -16.75803,2.775082 -3.3294,0.699943 -6.8208,1.010513 -10.28,0.993962 -3.45884,0.01648 -6.94982,-0.294108 -10.27892,-0.993962 -5.59332,-0.871071 -11.10166,-2.374218 -16.75795,-2.775082 z m 4.91193,9.503561 c 6.03098,1.684628 9.01506,2.315609 14.74046,2.856622 -0.0169,9.161456 -0.9776,20.323259 -5.17189,31.068309 l -9.4185,-4.97575 c 0.0106,-8.07476 -0.23751,-18.534686 -0.15007,-28.949181 z m 44.25103,0 c 0.0874,10.414495 -0.16047,20.874421 -0.15007,28.949181 l -9.4185,4.97575 c -4.19438,-10.74505 -5.15502,-21.906853 -5.17195,-31.068309 5.7254,-0.541013 8.70945,-1.171994 14.74052,-2.856622 z m -22.12609,21.540351 c 1.59257,5.11998 2.80247,10.92708 5.26412,15.96689 l -5.26412,2.76442 -5.26297,-2.76442 c 2.46154,-5.03969 3.6704,-10.84719 5.26297,-15.96689 z"
           sodipodi:nodetypes="ccccccccccccccccccccccccccccccccccccccccc" />
      </g>
      <text
         xml:space="preserve"
         style="font-style:normal;font-variant:normal;font-weight:bold;font-stretch:normal;font-size:96px;font-family:Arial;-inkscape-font-specification:'Arial, Bold';font-variant-ligatures:normal;font-variant-caps:normal;font-variant-numeric:normal;font-variant-east-asian:normal;fill:#ffffff;stroke-width:5.66929"
         x="1177.5135"
         y="174.63113"
         id="text2400"><tspan
           sodipodi:role="line"
           id="tspan2398"
           x="1177.5135"
           y="174.63113">HTML_CodeSniffer</tspan></text>
      <text
         xml:space="preserve"
         style="font-style:normal;font-variant:normal;font-weight:normal;font-stretch:normal;font-size:64px;font-family:Arial;-inkscape-font-specification:'Arial, Normal';font-variant-ligatures:normal;font-variant-caps:normal;font-variant-numeric:normal;font-variant-east-asian:normal;fill:#ffffff;stroke-width:5.66929"
         x="1184.3573"
         y="268.71088"
         id="text2404"><tspan
           sodipodi:role="line"
           id="tspan2402"
           x="1184.3573"
           y="268.71088">wydanie polskie</tspan></text>
      <text
         xml:space="preserve"
         style="font-style:normal;font-variant:normal;font-weight:normal;font-stretch:normal;font-size:64px;line-height:1;font-family:Arial;-inkscape-font-specification:'Arial, Normal';font-variant-ligatures:normal;font-variant-caps:normal;font-variant-numeric:normal;font-variant-east-asian:normal;fill:#ffffff;stroke-width:5.66929"
         x="1182.7948"
         y="407.3096"
         id="text2408"><tspan
           sodipodi:role="line"
           id="tspan2406"
           x="1182.7948"
           y="407.3096"
           style="font-style:normal;font-variant:normal;font-weight:bold;font-stretch:normal;font-size:74.6667px;font-family:Arial;-inkscape-font-specification:'Arial, Bold';font-variant-ligatures:normal;font-variant-caps:normal;font-variant-numeric:normal;font-variant-east-asian:normal">sprawdź</tspan><tspan
           sodipodi:role="line"
           x="1182.7948"
           y="481.97632"
           id="tspan2410"
           style="font-style:normal;font-variant:normal;font-weight:bold;font-stretch:normal;font-size:74.6667px;font-family:Arial;-inkscape-font-specification:'Arial, Bold';font-variant-ligatures:normal;font-variant-caps:normal;font-variant-numeric:normal;font-variant-east-asian:normal">swoje</tspan><tspan
           sodipodi:role="line"
           x="1182.7948"
           y="556.64301"
           id="tspan2412"
           style="font-style:normal;font-variant:normal;font-weight:bold;font-stretch:normal;font-size:74.6667px;font-family:Arial;-inkscape-font-specification:'Arial, Bold';font-variant-ligatures:normal;font-variant-caps:normal;font-variant-numeric:normal;font-variant-east-asian:normal">strony</tspan></text>
    </g>
  </g>
</svg>
