<?xml version="1.0" encoding="UTF-8" standalone="no"?>
<!-- Created with Inkscape (http://www.inkscape.org/) -->

<svg
   version="1.1"
   id="svg2160"
   width="1000"
   height="600"
   viewBox="0 0 1000 600"
   sodipodi:docname="szad.svg"
   inkscape:version="1.2.1 (9c6d41e410, 2022-07-14)"
   xmlns:inkscape="http://www.inkscape.org/namespaces/inkscape"
   xmlns:sodipodi="http://sodipodi.sourceforge.net/DTD/sodipodi-0.dtd"
   xmlns="http://www.w3.org/2000/svg"
   xmlns:svg="http://www.w3.org/2000/svg">
  <defs
     id="defs2164" />
  <sodipodi:namedview
     id="namedview2162"
     pagecolor="#ffffff"
     bordercolor="#000000"
     borderopacity="0.25"
     inkscape:showpageshadow="2"
     inkscape:pageopacity="0.0"
     inkscape:pagecheckerboard="0"
     inkscape:deskcolor="#d1d1d1"
     showgrid="false"
     inkscape:zoom="0.31583333"
     inkscape:cx="151.97889"
     inkscape:cy="253.29816"
     inkscape:window-width="1920"
     inkscape:window-height="991"
     inkscape:window-x="-9"
     inkscape:window-y="-9"
     inkscape:window-maximized="1"
     inkscape:current-layer="g2166" />
  <g
     inkscape:groupmode="layer"
     inkscape:label="Image"
     id="g2166">
    <rect
       style="fill:#800066;fill-opacity:1;stroke-width:5.65342"
       id="rect1393"
       width="1000.0001"
       height="600"
       x="-6.1035156e-05"
       y="0"
       inkscape:export-filename="..\..\..\irdpl-biblio1.png"
       inkscape:export-xdpi="96"
       inkscape:export-ydpi="96" />
    <g
       id="g697"
       transform="translate(-34.343592,-2.1604633)">
      <g
         id="g676">
        <g
           id="g6538"
           transform="matrix(2.9473198,0,0,2.9473198,577.59845,181.2852)">
          <g
             id="g6483"
             transform="translate(1.6232432,1.6081757)">
            <path
               style="fill:#8ab958;fill-opacity:1;fill-rule:nonzero;stroke:none;stroke-width:0.760188;stroke-linecap:round;stroke-linejoin:miter;stroke-miterlimit:4;stroke-dasharray:none;stroke-dashoffset:0;stroke-opacity:1"
               d="M 49.563674,7.8535585 56.242212,37.812435 62.121849,63.29086 115.94522,51.283854 V 16.803476 c 0,-4.958264 -3.99165,-8.9499175 -8.94992,-8.9499175 z"
               id="path4171-6"
               inkscape:connector-curvature="0"
               inkscape:export-xdpi="89"
               inkscape:export-ydpi="89"
               inkscape:export-filename="C:\Users\zwias_000\Downloads\logo_JAT_v2.png" />
            <path
               style="fill:#eba757;fill-opacity:1;fill-rule:nonzero;stroke:none;stroke-width:0.760188;stroke-linecap:round;stroke-linejoin:miter;stroke-miterlimit:4;stroke-dasharray:none;stroke-dashoffset:0;stroke-opacity:1"
               d="M 116.07712,51.249964 62.344636,63.236449 74.312796,116.93009 H 107.1272 c 4.95827,0 8.94992,-3.99165 8.94992,-8.94992 z"
               id="rect4168-3"
               inkscape:connector-curvature="0"
               inkscape:export-xdpi="89"
               inkscape:export-ydpi="89"
               inkscape:export-filename="C:\Users\zwias_000\Downloads\logo_JAT_v2.png" />
            <path
               style="fill:#d85237;fill-opacity:1;fill-rule:nonzero;stroke:none;stroke-width:0.760188;stroke-linecap:round;stroke-linejoin:miter;stroke-miterlimit:4;stroke-dasharray:none;stroke-dashoffset:0;stroke-opacity:1"
               d="M 62.333383,63.23647 8.6763936,75.206096 v 32.774084 c 0,4.9583 3.9916494,8.94991 8.9499174,8.94991 h 56.675234 z"
               id="path4180-4"
               inkscape:connector-curvature="0"
               inkscape:export-xdpi="89"
               inkscape:export-ydpi="89"
               inkscape:export-filename="C:\Users\zwias_000\Downloads\logo_JAT_v2.png" />
            <path
               id="path4183-0"
               d="m 17.626311,7.8535585 c -4.958268,0 -8.9499174,3.9916495 -8.9499174,8.9499135 V 75.239968 L 62.333386,63.270337 49.980435,7.8535585 Z"
               style="fill:#5e90c7;fill-opacity:1;fill-rule:nonzero;stroke:none;stroke-width:0.760188;stroke-linecap:round;stroke-linejoin:miter;stroke-miterlimit:4;stroke-dasharray:none;stroke-dashoffset:0;stroke-opacity:1"
               inkscape:connector-curvature="0"
               inkscape:export-xdpi="89"
               inkscape:export-ydpi="89"
               inkscape:export-filename="C:\Users\zwias_000\Downloads\logo_JAT_v2.png" />
          </g>
          <path
             style="fill:#f2f2f2;stroke-width:0.895134"
             d="M 45.754378,8.8409521 H 18.810797 c -4.943833,0 -8.951346,4.0075139 -8.951346,8.9513469 V 57.983875 L 22.391339,46.522563 V 22.089855 h 23.363039 v 9.039957 L 63.567564,15.464951 45.754378,-0.1999236 Z"
             id="path6485" />
          <path
             style="fill:#f2f2f2;stroke-width:0.895134"
             d="M 118.09248,44.510046 V 17.566465 c 0,-4.943833 -4.00752,-8.9513462 -8.95135,-8.9513462 H 68.949553 L 80.410865,21.147007 h 24.432705 v 23.363039 h -9.039954 l 15.664864,17.813187 15.66487,-17.813187 z"
             id="path6501" />
          <path
             style="fill:#f2f2f2;stroke-width:0.895134"
             d="m 81.890095,119.15905 h 26.943575 c 4.94384,0 8.95135,-4.00752 8.95135,-8.95135 V 70.016131 L 105.25313,81.477443 V 105.91014 H 81.890095 v -9.039946 l -17.813187,15.664856 17.813187,15.66487 z"
             id="path6503" />
          <path
             style="fill:#f2f2f2;stroke-width:0.895134"
             d="m 9.9075197,82.778907 v 26.943573 c 0,4.94384 4.0075203,8.95135 8.9513503,8.95135 H 59.050444 L 47.589134,106.14194 H 23.156429 V 82.778907 H 32.19638 L 16.531519,64.96572 0.86664972,82.778907 Z"
             id="path6505" />
        </g>
        <path
           id="path4814"
           style="fill:#f2f2f2;stroke:none;stroke-width:6.68357"
           d="m 766.82232,280.18357 c -10.71995,-6.1e-4 -19.41096,8.68901 -19.41181,19.40911 0.014,6.39998 3.18012,12.38216 8.46575,15.99084 1.63345,1.12652 3.42984,1.99592 5.32666,2.57794 1.82163,0.55515 3.71505,0.83921 5.6194,0.84305 10.72013,-10e-4 19.40987,-8.69172 19.40914,-19.41183 -4.9e-4,-10.71902 -8.69004,-19.40834 -19.40914,-19.40911 z m -62.48584,35.83096 c -4.95861,-0.25475 -8.82355,4.17752 -8.85335,9.73709 l 0.26556,93.90112 58.87777,27.91285 11.58853,5.45946 v 0.0183 l 0.11099,0.0514 0.0182,-0.009 0.0243,0.009 0.11105,-0.0514 v -0.0183 l 11.58853,-5.45946 58.87795,-27.91285 0.26556,-93.90112 c -0.0303,-5.55957 -3.89474,-9.99184 -8.85335,-9.73709 -12.97341,0.91942 -25.60716,4.36703 -38.43614,6.36491 -7.63626,1.60538 -15.64414,2.31771 -23.57812,2.27975 -7.93318,0.0378 -15.94004,-0.67457 -23.57568,-2.27975 -12.8288,-1.99788 -25.46268,-5.44549 -38.43591,-6.36491 z m 11.26598,21.79731 c 13.83259,3.86385 20.67691,5.31106 33.80864,6.55192 -0.0388,21.01266 -2.24224,46.6133 -11.86221,71.25808 l -21.60222,-11.41235 c 0.0243,-18.52022 -0.54477,-42.51104 -0.34421,-66.39765 z m 101.49388,0 c 0.20045,23.88661 -0.36805,47.87743 -0.3442,66.39765 l -21.60222,11.41235 c -9.62022,-24.64478 -11.8235,-50.24542 -11.86233,-71.25808 13.13173,-1.24086 19.97593,-2.68807 33.80875,-6.55192 z m -50.74827,49.4048 c 3.65273,11.74316 6.42772,25.06228 12.07376,36.62156 l -12.07376,6.34046 -12.07109,-6.34046 c 5.64574,-11.559 8.41836,-24.87904 12.07109,-36.62156 z"
           sodipodi:nodetypes="ccccccccccccccccccccccccccccccccccccccccc" />
      </g>
      <g
         id="g663"
         transform="translate(27.731736)">
        <text
           xml:space="preserve"
           style="font-style:normal;font-variant:normal;font-weight:bold;font-stretch:normal;font-size:96px;line-height:0;font-family:Arial;-inkscape-font-specification:'Arial, Bold';font-variant-ligatures:normal;font-variant-caps:normal;font-variant-numeric:normal;font-variant-east-asian:normal;fill:#ffffff;stroke-width:5.66929"
           x="87.834045"
           y="284.89526"
           id="text2400"><tspan
             sodipodi:role="line"
             x="87.834045"
             y="284.89526"
             id="tspan626"
             style="font-style:normal;font-variant:normal;font-weight:normal;font-stretch:normal;font-size:112px;line-height:1.1;font-family:Haettenschweiler;-inkscape-font-specification:'Haettenschweiler, Normal';font-variant-ligatures:normal;font-variant-caps:normal;font-variant-numeric:normal;font-variant-east-asian:normal">ZAUFANYCH</tspan><tspan
             sodipodi:role="line"
             x="87.834045"
             y="408.09528"
             id="tspan628"
             style="font-style:normal;font-variant:normal;font-weight:normal;font-stretch:normal;font-size:112px;line-height:1.1;font-family:Haettenschweiler;-inkscape-font-specification:'Haettenschweiler, Normal';font-variant-ligatures:normal;font-variant-caps:normal;font-variant-numeric:normal;font-variant-east-asian:normal">AUDYTORÓW</tspan><tspan
             sodipodi:role="line"
             x="87.834045"
             y="531.29529"
             id="tspan630"
             style="font-style:normal;font-variant:normal;font-weight:normal;font-stretch:normal;font-size:112px;line-height:1.1;font-family:Haettenschweiler;-inkscape-font-specification:'Haettenschweiler, Normal';font-variant-ligatures:normal;font-variant-caps:normal;font-variant-numeric:normal;font-variant-east-asian:normal">DOSTĘPNOŚCI</tspan></text>
        <text
           xml:space="preserve"
           style="font-style:normal;font-variant:normal;font-weight:normal;font-stretch:normal;font-size:126.435px;line-height:1;font-family:Haettenschweiler;-inkscape-font-specification:'Haettenschweiler, Normal';font-variant-ligatures:normal;font-variant-caps:normal;font-variant-numeric:normal;font-variant-east-asian:normal;fill:#ffffff;stroke-width:4.97776"
           x="75.274979"
           y="178.53383"
           id="text640"
           transform="scale(1.138924,0.87802171)"><tspan
             sodipodi:role="line"
             x="75.274979"
             y="178.53383"
             id="tspan638"
             style="font-style:normal;font-variant:normal;font-weight:normal;font-stretch:normal;font-size:154.532px;font-family:Haettenschweiler;-inkscape-font-specification:'Haettenschweiler, Normal';font-variant-ligatures:normal;font-variant-caps:normal;font-variant-numeric:normal;font-variant-east-asian:normal;stroke-width:4.97776">SZAD, czyli SIEĆ</tspan></text>
      </g>
    </g>
  </g>
</svg>
