<?xml version="1.0" encoding="UTF-8" standalone="no"?>
<!-- Created with Inkscape (http://www.inkscape.org/) -->

<svg
   width="1000"
   height="600"
   viewBox="0 0 264.58331 158.75"
   version="1.1"
   id="svg19255"
   inkscape:version="1.2.1 (9c6d41e410, 2022-07-14)"
   sodipodi:docname="irdpl-na-github.svg"
   xmlns:inkscape="http://www.inkscape.org/namespaces/inkscape"
   xmlns:sodipodi="http://sodipodi.sourceforge.net/DTD/sodipodi-0.dtd"
   xmlns="http://www.w3.org/2000/svg"
   xmlns:svg="http://www.w3.org/2000/svg">
  <sodipodi:namedview
     id="namedview19257"
     pagecolor="#ffffff"
     bordercolor="#000000"
     borderopacity="0.25"
     inkscape:showpageshadow="2"
     inkscape:pageopacity="0.0"
     inkscape:pagecheckerboard="0"
     inkscape:deskcolor="#d1d1d1"
     inkscape:document-units="mm"
     showgrid="false"
     inkscape:zoom="0.43221224"
     inkscape:cx="1406.7163"
     inkscape:cy="372.50218"
     inkscape:window-width="1920"
     inkscape:window-height="991"
     inkscape:window-x="-9"
     inkscape:window-y="-9"
     inkscape:window-maximized="1"
     inkscape:current-layer="layer1" />
  <defs
     id="defs19252" />
  <g
     inkscape:label="Warstwa 1"
     inkscape:groupmode="layer"
     id="layer1">
    <rect
       style="fill:#800066;stroke-width:1.4958;fill-opacity:1"
       id="rect1393"
       width="264.58334"
       height="158.75"
       x="0"
       y="0"
       inkscape:export-filename="pull-request.png"
       inkscape:export-xdpi="96"
       inkscape:export-ydpi="96" />
    <text
       xml:space="preserve"
       style="font-style:normal;font-variant:normal;font-weight:normal;font-stretch:normal;font-size:38.1px;line-height:1.22;font-family:Haettenschweiler;-inkscape-font-specification:'Haettenschweiler, Normal';font-variant-ligatures:normal;font-variant-caps:normal;font-variant-numeric:normal;font-variant-east-asian:normal;fill:#ffffff;fill-opacity:1;stroke-width:1.4089"
       x="17.044983"
       y="36.471714"
       id="text1812"
       transform="scale(1.0646614,0.93926577)"><tspan
         sodipodi:role="line"
         style="font-style:normal;font-variant:normal;font-weight:normal;font-stretch:normal;font-size:38.1px;font-family:Haettenschweiler;-inkscape-font-specification:'Haettenschweiler, Normal';font-variant-ligatures:normal;font-variant-caps:normal;font-variant-numeric:normal;font-variant-east-asian:normal;fill:#ffffff;stroke-width:1.4089"
         x="17.044983"
         y="36.471714"
         id="tspan547">IRDPL.PL na GITHUB</tspan></text>
    <text
       xml:space="preserve"
       style="font-style:normal;font-variant:normal;font-weight:normal;font-stretch:normal;font-size:12.7px;line-height:1.22;font-family:'Gill Sans MT Condensed';-inkscape-font-specification:'Gill Sans MT Condensed, Normal';font-variant-ligatures:normal;font-variant-caps:normal;font-variant-numeric:normal;font-variant-east-asian:normal;fill:#ffffff;fill-opacity:1;stroke-width:1.4089"
       x="121.6562"
       y="63.844955"
       id="text577"
       transform="scale(1.0646614,0.93926577)"><tspan
         sodipodi:role="line"
         style="font-style:normal;font-variant:normal;font-weight:normal;font-stretch:normal;font-size:12.7px;font-family:'Gill Sans MT Condensed';-inkscape-font-specification:'Gill Sans MT Condensed, Normal';font-variant-ligatures:normal;font-variant-caps:normal;font-variant-numeric:normal;font-variant-east-asian:normal;fill:#ffffff;stroke-width:1.4089"
         x="121.6562"
         y="63.844955"
         id="tspan575" /></text>
    <g
       id="g1572"
       transform="translate(3.7095985)">
      <g
         id="g1938"
         transform="translate(-131.32351,0.34404298)">
        <g
           id="g19236"
           transform="matrix(0.22427913,0,0,0.22427913,151.97817,46.326572)">
          <path
             style="opacity:1;fill:#8ab958;fill-opacity:1;fill-rule:nonzero;stroke:none;stroke-width:2.87315;stroke-linecap:round;stroke-linejoin:miter;stroke-miterlimit:4;stroke-dasharray:none;stroke-dashoffset:0;stroke-opacity:1"
             d="m 165.51439,24.704089 25.24172,113.230401 22.22225,96.29641 203.42691,-45.38081 V 58.530547 c 0,-18.739893 -15.08654,-33.826458 -33.82646,-33.826458 z"
             id="path4171"
             inkscape:connector-curvature="0"
             inkscape:export-xdpi="89"
             inkscape:export-ydpi="89"
             inkscape:export-filename="C:\Users\zwias_000\Downloads\logo_JAT_v2.png" />
          <path
             style="opacity:1;fill:#eba757;fill-opacity:1;fill-rule:nonzero;stroke:none;stroke-width:2.87315;stroke-linecap:round;stroke-linejoin:miter;stroke-miterlimit:4;stroke-dasharray:none;stroke-dashoffset:0;stroke-opacity:1"
             d="m 416.90378,185.98483 -203.08339,45.30325 45.23399,202.93658 h 124.02296 c 18.73991,0 33.82644,-15.08655 33.82644,-33.82646 z"
             id="rect4168"
             inkscape:connector-curvature="0"
             inkscape:export-xdpi="89"
             inkscape:export-ydpi="89"
             inkscape:export-filename="C:\Users\zwias_000\Downloads\logo_JAT_v2.png" />
          <path
             style="opacity:1;fill:#d85237;fill-opacity:1;fill-rule:nonzero;stroke:none;stroke-width:2.87315;stroke-linecap:round;stroke-linejoin:miter;stroke-miterlimit:4;stroke-dasharray:none;stroke-dashoffset:0;stroke-opacity:1"
             d="M 213.106,228.55798 10.307928,273.79751 v 123.87055 c 0,18.74003 15.086549,33.82644 33.826459,33.82644 H 258.34 Z"
             id="path4180"
             inkscape:connector-curvature="0"
             inkscape:export-xdpi="89"
             inkscape:export-ydpi="89"
             inkscape:export-filename="C:\Users\zwias_000\Downloads\logo_JAT_v2.png" />
          <path
             id="path4183"
             d="m 44.214726,21.966916 c -18.739909,0 -33.826461,15.086549 -33.826461,33.826446 V 276.65571 L 213.18635,231.41616 166.49803,21.966916 Z"
             style="opacity:1;fill:#5e90c7;fill-opacity:1;fill-rule:nonzero;stroke:none;stroke-width:2.87315;stroke-linecap:round;stroke-linejoin:miter;stroke-miterlimit:4;stroke-dasharray:none;stroke-dashoffset:0;stroke-opacity:1"
             inkscape:connector-curvature="0"
             inkscape:export-xdpi="89"
             inkscape:export-ydpi="89"
             inkscape:export-filename="C:\Users\zwias_000\Downloads\logo_JAT_v2.png" />
        </g>
        <path
           id="path4814"
           style="fill:#f2f2f2;stroke:none;stroke-width:2.91402"
           d="m 199.37336,59.016954 c -4.67387,-2.99e-4 -8.46311,3.788385 -8.46348,8.462316 0.006,2.790372 1.38652,5.398585 3.69103,6.971958 0.71217,0.491158 1.49539,0.870217 2.32241,1.123977 0.79422,0.242043 1.61974,0.365888 2.45004,0.367566 4.67394,-4.5e-4 8.46264,-3.789563 8.46233,-8.463501 -2.2e-4,-4.673464 -3.78883,-8.461979 -8.46233,-8.462316 z m -27.24364,15.622194 c -2.16194,-0.111073 -3.84705,1.821387 -3.86004,4.24534 l 0.11578,40.940612 25.67055,12.16992 5.05256,2.38031 v 0.008 l 0.0484,0.0224 0.008,-0.004 0.0106,0.004 0.0484,-0.0224 v -0.008 l 5.05258,-2.38031 25.67061,-12.16992 0.11578,-40.940612 c -0.0133,-2.423953 -1.69811,-4.356409 -3.86004,-4.24534 -5.65637,0.400864 -11.16465,1.904011 -16.75803,2.775082 -3.3294,0.699943 -6.8208,1.010513 -10.28,0.993962 -3.45884,0.01648 -6.94982,-0.294108 -10.27892,-0.993962 -5.59332,-0.871071 -11.10166,-2.374218 -16.75795,-2.775082 z m 4.91193,9.503561 c 6.03098,1.684628 9.01506,2.315609 14.74046,2.856622 -0.0169,9.161456 -0.9776,20.323259 -5.17189,31.068309 l -9.4185,-4.97575 c 0.0106,-8.07476 -0.23751,-18.534686 -0.15007,-28.949181 z m 44.25103,0 c 0.0874,10.414495 -0.16047,20.874421 -0.15007,28.949181 l -9.4185,4.97575 c -4.19438,-10.74505 -5.15502,-21.906853 -5.17195,-31.068309 5.7254,-0.541013 8.70945,-1.171994 14.74052,-2.856622 z m -22.12609,21.540351 c 1.59257,5.11998 2.80247,10.92708 5.26412,15.96689 l -5.26412,2.76442 -5.26297,-2.76442 c 2.46154,-5.03969 3.6704,-10.84719 5.26297,-15.96689 z"
           sodipodi:nodetypes="ccccccccccccccccccccccccccccccccccccccccc" />
      </g>
      <path
         fill-rule="evenodd"
         clip-rule="evenodd"
         d="m 186.80248,50.78426 c -26.2478,0 -47.46654,21.375176 -47.46654,47.819184 0,21.138106 13.59559,39.031056 32.45624,45.363916 2.35809,0.47612 3.22189,-1.02888 3.22189,-2.29489 0,-1.1086 -0.0743,-4.90852 -0.0743,-8.86779 -13.20406,2.85067 -15.95367,-5.70037 -15.95367,-5.70037 -2.122,-5.54198 -5.26601,-6.96636 -5.26601,-6.96636 -4.32167,-2.92937 0.31513,-2.92937 0.31513,-2.92937 4.79396,0.31673 7.30939,4.90852 7.30939,4.90852 4.24294,7.28311 11.08016,5.22525 13.83073,3.95828 0.39258,-3.08772 1.65068,-5.22525 2.98664,-6.41254 -10.53116,-1.10859 -21.61121,-5.22525 -21.61121,-23.593336 0,-5.22524 1.88485,-9.50028 4.87161,-12.825093 -0.4711,-1.187301 -2.122,-6.096784 0.47217,-12.667708 0,0 4.00781,-1.26697 13.04469,4.908519 a 45.635999,45.635999 0 0 1 11.86704,-1.583708 c 4.00791,0 8.0935,0.554823 11.86618,1.583708 9.03785,-6.175489 13.04565,-4.908519 13.04565,-4.908519 2.59417,6.570924 0.94222,11.480407 0.47112,12.667708 3.06538,3.324813 4.87258,7.599853 4.87258,12.825093 0,18.368086 -11.08007,22.405056 -21.68995,23.593336 1.7294,1.50403 3.22177,4.35374 3.22177,8.86681 0,6.41256 -0.0742,11.55912 -0.0742,13.14186 0,1.26696 0.86477,2.77196 3.2218,2.29685 18.86062,-6.33483 32.45621,-24.22681 32.45621,-45.364916 0.0742,-26.444008 -21.21871,-47.819184 -47.38768,-47.819184 z"
         fill="#24292f"
         id="path9381"
         style="fill:#ffffff;fill-opacity:1;stroke-width:0.971592" />
    </g>
  </g>
</svg>
