<?xml version="1.0" encoding="UTF-8" standalone="no"?>
<!-- Created with Inkscape (http://www.inkscape.org/) -->

<svg
   width="1000"
   height="600"
   viewBox="0 0 264.58331 158.75"
   version="1.1"
   id="svg19255"
   inkscape:version="1.2.1 (9c6d41e410, 2022-07-14)"
   sodipodi:docname="irdpl-projekty.svg"
   xmlns:inkscape="http://www.inkscape.org/namespaces/inkscape"
   xmlns:sodipodi="http://sodipodi.sourceforge.net/DTD/sodipodi-0.dtd"
   xmlns="http://www.w3.org/2000/svg"
   xmlns:svg="http://www.w3.org/2000/svg">
  <sodipodi:namedview
     id="namedview19257"
     pagecolor="#ffffff"
     bordercolor="#000000"
     borderopacity="0.25"
     inkscape:showpageshadow="2"
     inkscape:pageopacity="0.0"
     inkscape:pagecheckerboard="0"
     inkscape:deskcolor="#d1d1d1"
     inkscape:document-units="mm"
     showgrid="false"
     inkscape:zoom="0.43221224"
     inkscape:cx="-119.15442"
     inkscape:cy="372.50218"
     inkscape:window-width="1920"
     inkscape:window-height="991"
     inkscape:window-x="-9"
     inkscape:window-y="-9"
     inkscape:window-maximized="1"
     inkscape:current-layer="layer1" />
  <defs
     id="defs19252" />
  <g
     inkscape:label="Warstwa 1"
     inkscape:groupmode="layer"
     id="layer1">
    <rect
       style="fill:#800066;stroke-width:1.4958;fill-opacity:1"
       id="rect1393"
       width="264.58334"
       height="158.75"
       x="0"
       y="0"
       inkscape:export-filename="irdpl-projekty.png"
       inkscape:export-xdpi="96"
       inkscape:export-ydpi="96" />
    <text
       xml:space="preserve"
       style="font-style:normal;font-variant:normal;font-weight:normal;font-stretch:normal;font-size:41.0876px;line-height:1.22;font-family:Haettenschweiler;-inkscape-font-specification:'Haettenschweiler, Normal';font-variant-ligatures:normal;font-variant-caps:normal;font-variant-numeric:normal;font-variant-east-asian:normal;fill:#ffffff;fill-opacity:1;stroke-width:1.4089"
       x="16.496586"
       y="36.471714"
       id="text1812"
       transform="scale(1.0646614,0.93926577)"><tspan
         sodipodi:role="line"
         style="font-style:normal;font-variant:normal;font-weight:normal;font-stretch:normal;font-size:41.0876px;font-family:Haettenschweiler;-inkscape-font-specification:'Haettenschweiler, Normal';font-variant-ligatures:normal;font-variant-caps:normal;font-variant-numeric:normal;font-variant-east-asian:normal;fill:#ffffff;stroke-width:1.4089"
         x="16.496586"
         y="36.471714"
         id="tspan547">NASZE PROJEKTY</tspan></text>
    <g
       id="g569"
       transform="translate(-0.61970853)">
      <g
         id="g3268"
         transform="matrix(0.85422579,0,0,0.85422579,162.6822,41.695708)">
        <g
           id="g3195"
           transform="matrix(1.0400001,0,0,1.0400001,8.8975464,-83.474241)">
          <path
             id="path4171"
             style="fill:#8ab958;fill-opacity:1;fill-rule:nonzero;stroke:none;stroke-width:1.02073;stroke-linecap:round;stroke-linejoin:miter;stroke-miterlimit:4;stroke-dasharray:none;stroke-dashoffset:0;stroke-opacity:1"
             d="m -113.86178,97.333594 a 45.912048,45.912048 0 0 0 -9.83248,1.07797 l 2.61948,11.750186 7.89513,34.21032 44.379715,-9.90017 A 45.912048,45.912048 0 0 0 -113.86178,97.333594 Z" />
          <path
             id="rect4168"
             style="fill:#eba757;fill-opacity:1;fill-rule:nonzero;stroke:none;stroke-width:1.02073;stroke-linecap:round;stroke-linejoin:miter;stroke-miterlimit:4;stroke-dasharray:none;stroke-dashoffset:0;stroke-opacity:1"
             d="m -68.991654,133.53604 -43.888796,9.79061 9.91826,44.49703 a 45.912048,45.912048 0 0 0 35.012332,-44.57816 45.912048,45.912048 0 0 0 -1.041796,-9.70948 z" />
          <path
             id="path4180"
             style="fill:#d85237;fill-opacity:1;fill-rule:nonzero;stroke:none;stroke-width:1.02073;stroke-linecap:round;stroke-linejoin:miter;stroke-miterlimit:4;stroke-dasharray:none;stroke-dashoffset:0;stroke-opacity:1"
             d="m -113.1347,142.35669 -45.66181,10.18645 a 45.912048,45.912048 0 0 0 44.93473,36.61431 45.912048,45.912048 0 0 0 10.86393,-1.32447 z" />
          <path
             id="path4183"
             style="fill:#5e90c7;fill-opacity:1;fill-rule:nonzero;stroke:none;stroke-width:1.02073;stroke-linecap:round;stroke-linejoin:miter;stroke-miterlimit:4;stroke-dasharray:none;stroke-dashoffset:0;stroke-opacity:1"
             d="m -123.15114,98.309245 a 45.912048,45.912048 0 0 0 -36.62257,44.936275 45.912048,45.912048 0 0 0 1.16685,10.27689 l 45.5011,-10.15028 z" />
        </g>
        <path
           id="path4814"
           style="fill:#ffffff;stroke:none;stroke-width:2.72542"
           d="m -109.32518,30.246454 c -4.37138,-2.81e-4 -7.91536,3.543197 -7.91572,7.914619 0.005,2.609777 1.29679,5.04918 3.45215,6.520718 0.66608,0.459367 1.39861,0.813893 2.17209,1.051232 0.74283,0.226376 1.51492,0.342202 2.29148,0.343771 4.37143,-4.15e-4 7.91492,-3.544288 7.91463,-7.915721 -2.1e-4,-4.370985 -3.54361,-7.914307 -7.91463,-7.914619 z m -25.48038,14.611096 c -2.02202,-0.103896 -3.59807,1.7035 -3.61022,3.970575 l 0.10829,38.290845 24.00911,11.38226 4.72555,2.22626 v 0.007 l 0.0452,0.021 0.007,-0.004 0.0104,0.004 0.0452,-0.021 v -0.007 l 4.72558,-2.22626 24.009144,-11.38226 0.108284,-38.290845 c -0.01248,-2.267075 -1.588207,-4.07446 -3.610201,-3.970575 -5.290287,0.374921 -10.442063,1.780782 -15.67342,2.595467 -3.113917,0.654649 -6.379357,0.94511 -9.614667,0.929635 -3.23497,0.01539 -6.50001,-0.27507 -9.61364,-0.929635 -5.23131,-0.814685 -10.38314,-2.220546 -15.67334,-2.595467 z m 4.59402,8.888465 c 5.64064,1.575596 8.43159,2.165744 13.78643,2.671736 -0.0158,8.568509 -0.91433,19.007905 -4.83716,29.057509 l -8.80891,-4.653709 c 0.0104,-7.552148 -0.22214,-17.335086 -0.14036,-27.075536 z m 41.387016,0 c 0.08174,9.74045 -0.150083,19.523388 -0.140359,27.075536 l -8.808916,4.653709 c -3.922911,-10.049604 -4.821381,-20.489 -4.837211,-29.057509 5.35484,-0.505992 8.145754,-1.09614 13.786486,-2.671736 z m -20.694046,20.146223 c 1.4895,4.788597 2.62109,10.219852 4.92341,14.933476 l -4.92341,2.585502 -4.92234,-2.585502 c 2.30223,-4.713509 3.43284,-10.145138 4.92234,-14.933476 z"
           sodipodi:nodetypes="ccccccccccccccccccccccccccccccccccccccccc" />
      </g>
      <path
         id="path3308"
         style="fill:#ffffff;stroke-width:2.44194"
         d="m 67.392618,47.428014 c -20.756491,0.07958 -39.294199,8.372227 -39.294199,8.372227 0,0 -23.3129233,49.470309 4.413016,77.749229 27.725906,28.27889 77.646815,5.94742 77.646815,5.94742 0,0 23.31335,-49.470753 -4.41257,-77.749659 C 94.915237,50.700779 80.698064,47.376999 67.392618,47.428014 Z m 2.123298,10.976242 c 10.041988,0.09905 20.046281,4.030251 27.634621,11.769939 15.176673,15.479361 14.931543,40.319465 -0.54783,55.496125 C 81.123341,140.84699 56.28324,140.60141 41.106578,125.12206 25.929899,109.64268 26.175036,84.803041 41.654402,69.626377 49.394072,62.038043 59.473919,58.30521 69.515916,58.404256 Z" />
    </g>
    <text
       xml:space="preserve"
       style="font-style:normal;font-variant:normal;font-weight:normal;font-stretch:normal;font-size:12.7px;line-height:1.22;font-family:'Gill Sans MT Condensed';-inkscape-font-specification:'Gill Sans MT Condensed, Normal';font-variant-ligatures:normal;font-variant-caps:normal;font-variant-numeric:normal;font-variant-east-asian:normal;fill:#ffffff;fill-opacity:1;stroke-width:1.4089"
       x="121.6562"
       y="63.844955"
       id="text577"
       transform="scale(1.0646614,0.93926577)"><tspan
         sodipodi:role="line"
         style="font-style:normal;font-variant:normal;font-weight:normal;font-stretch:normal;font-size:12.7px;font-family:'Gill Sans MT Condensed';-inkscape-font-specification:'Gill Sans MT Condensed, Normal';font-variant-ligatures:normal;font-variant-caps:normal;font-variant-numeric:normal;font-variant-east-asian:normal;fill:#ffffff;stroke-width:1.4089"
         x="121.6562"
         y="63.844955"
         id="tspan575" /></text>
    <text
       xml:space="preserve"
       style="font-style:normal;font-variant:normal;font-weight:normal;font-stretch:normal;font-size:12.7px;line-height:1.22;font-family:'Gill Sans MT Condensed';-inkscape-font-specification:'Gill Sans MT Condensed, Normal';font-variant-ligatures:normal;font-variant-caps:normal;font-variant-numeric:normal;font-variant-east-asian:normal;fill:#ffffff;fill-opacity:1;stroke-width:1.4089"
       x="122.29319"
       y="59.088985"
       id="text581"
       transform="scale(1.0646614,0.93926577)"><tspan
         sodipodi:role="line"
         style="font-style:normal;font-variant:normal;font-weight:normal;font-stretch:normal;font-size:12.7px;font-family:'Gill Sans MT Condensed';-inkscape-font-specification:'Gill Sans MT Condensed, Normal';font-variant-ligatures:normal;font-variant-caps:normal;font-variant-numeric:normal;font-variant-east-asian:normal;fill:#ffffff;stroke-width:1.4089"
         x="122.29319"
         y="59.088985"
         id="tspan579">Tłumaczymy WCAG 2.2</tspan><tspan
         sodipodi:role="line"
         style="font-style:normal;font-variant:normal;font-weight:normal;font-stretch:normal;font-size:12.7px;font-family:'Gill Sans MT Condensed';-inkscape-font-specification:'Gill Sans MT Condensed, Normal';font-variant-ligatures:normal;font-variant-caps:normal;font-variant-numeric:normal;font-variant-east-asian:normal;fill:#ffffff;stroke-width:1.4089"
         x="122.29319"
         y="74.582993"
         id="tspan591">Cały WCAG po polsku</tspan><tspan
         sodipodi:role="line"
         style="font-style:normal;font-variant:normal;font-weight:normal;font-stretch:normal;font-size:12.7px;font-family:'Gill Sans MT Condensed';-inkscape-font-specification:'Gill Sans MT Condensed, Normal';font-variant-ligatures:normal;font-variant-caps:normal;font-variant-numeric:normal;font-variant-east-asian:normal;fill:#ffffff;stroke-width:1.4089"
         x="122.29319"
         y="90.076988"
         id="tspan595">Biblioteka Liderów Dostępności</tspan><tspan
         sodipodi:role="line"
         style="font-style:normal;font-variant:normal;font-weight:normal;font-stretch:normal;font-size:12.7px;font-family:'Gill Sans MT Condensed';-inkscape-font-specification:'Gill Sans MT Condensed, Normal';font-variant-ligatures:normal;font-variant-caps:normal;font-variant-numeric:normal;font-variant-east-asian:normal;fill:#ffffff;stroke-width:1.4089"
         x="122.29319"
         y="105.57099"
         id="tspan597">HTML_CodeSniffer</tspan><tspan
         sodipodi:role="line"
         style="font-style:normal;font-variant:normal;font-weight:normal;font-stretch:normal;font-size:12.7px;font-family:'Gill Sans MT Condensed';-inkscape-font-specification:'Gill Sans MT Condensed, Normal';font-variant-ligatures:normal;font-variant-caps:normal;font-variant-numeric:normal;font-variant-east-asian:normal;fill:#ffffff;stroke-width:1.4089"
         x="122.29319"
         y="121.06499"
         id="tspan599">Translathon</tspan><tspan
         sodipodi:role="line"
         style="font-style:normal;font-variant:normal;font-weight:normal;font-stretch:normal;font-size:12.7px;font-family:'Gill Sans MT Condensed';-inkscape-font-specification:'Gill Sans MT Condensed, Normal';font-variant-ligatures:normal;font-variant-caps:normal;font-variant-numeric:normal;font-variant-east-asian:normal;fill:#ffffff;stroke-width:1.4089"
         x="122.29319"
         y="136.55899"
         id="tspan603">Kompetencje</tspan><tspan
         sodipodi:role="line"
         style="font-style:normal;font-variant:normal;font-weight:normal;font-stretch:normal;font-size:12.7px;font-family:'Gill Sans MT Condensed';-inkscape-font-specification:'Gill Sans MT Condensed, Normal';font-variant-ligatures:normal;font-variant-caps:normal;font-variant-numeric:normal;font-variant-east-asian:normal;fill:#ffffff;stroke-width:1.4089"
         x="122.29319"
         y="152.05299"
         id="tspan601">... to na dobry początek</tspan><tspan
         sodipodi:role="line"
         style="font-style:normal;font-variant:normal;font-weight:normal;font-stretch:normal;font-size:12.7px;font-family:'Gill Sans MT Condensed';-inkscape-font-specification:'Gill Sans MT Condensed, Normal';font-variant-ligatures:normal;font-variant-caps:normal;font-variant-numeric:normal;font-variant-east-asian:normal;fill:#ffffff;stroke-width:1.4089"
         x="122.29319"
         y="167.547"
         id="tspan593" /></text>
  </g>
</svg>
