<?xml version="1.0" encoding="UTF-8" standalone="no"?>
<!-- Created with Inkscape (http://www.inkscape.org/) -->

<svg
   version="1.1"
   id="svg1213"
   width="1000"
   height="600"
   viewBox="0 0 1000 600"
   sodipodi:docname="irdpl-biblio.svg"
   inkscape:version="1.2.1 (9c6d41e410, 2022-07-14)"
   xmlns:inkscape="http://www.inkscape.org/namespaces/inkscape"
   xmlns:sodipodi="http://sodipodi.sourceforge.net/DTD/sodipodi-0.dtd"
   xmlns="http://www.w3.org/2000/svg"
   xmlns:svg="http://www.w3.org/2000/svg">
  <defs
     id="defs1217" />
  <sodipodi:namedview
     id="namedview1215"
     pagecolor="#ffffff"
     bordercolor="#000000"
     borderopacity="0.25"
     inkscape:showpageshadow="2"
     inkscape:pageopacity="0.0"
     inkscape:pagecheckerboard="0"
     inkscape:deskcolor="#d1d1d1"
     showgrid="false"
     showguides="true"
     inkscape:zoom="0.26698623"
     inkscape:cx="651.71901"
     inkscape:cy="-382.04218"
     inkscape:window-width="1920"
     inkscape:window-height="991"
     inkscape:window-x="-9"
     inkscape:window-y="-9"
     inkscape:window-maximized="1"
     inkscape:current-layer="g1219">
    <sodipodi:guide
       position="-500.26385,368.86544"
       orientation="0,-1"
       id="guide1993"
       inkscape:locked="false" />
    <sodipodi:guide
       position="-449.60422,191.55673"
       orientation="0,-1"
       id="guide1995"
       inkscape:locked="false" />
  </sodipodi:namedview>
  <g
     inkscape:groupmode="layer"
     inkscape:label="Image"
     id="g1219">
    <rect
       style="fill:#800066;fill-opacity:1;stroke-width:5.65342"
       id="rect1393"
       width="1000.0001"
       height="600"
       x="-6.1035156e-05"
       y="0"
       inkscape:export-filename="..\..\..\irdpl-biblio1.png"
       inkscape:export-xdpi="96"
       inkscape:export-ydpi="96" />
    <g
       id="g2135"
       transform="translate(0,-14.164525)">
      <g
         id="g2053"
         transform="translate(-1.3027689,1.6217618)">
        <g
           id="g2039"
           transform="matrix(0.90706179,0,0,0.90706179,-1.9620616,49.552963)">
          <g
             id="g19236"
             transform="matrix(0.86996116,0,0,0.86996116,63.985303,148.29192)">
            <path
               style="opacity:1;fill:#8ab958;fill-opacity:1;fill-rule:nonzero;stroke:none;stroke-width:2.87315;stroke-linecap:round;stroke-linejoin:miter;stroke-miterlimit:4;stroke-dasharray:none;stroke-dashoffset:0;stroke-opacity:1"
               d="m 165.51439,24.704089 25.24172,113.230401 22.22225,96.29641 203.42691,-45.38081 V 58.530547 c 0,-18.739893 -15.08654,-33.826458 -33.82646,-33.826458 z"
               id="path4171"
               inkscape:connector-curvature="0"
               inkscape:export-xdpi="89"
               inkscape:export-ydpi="89"
               inkscape:export-filename="C:\Users\zwias_000\Downloads\logo_JAT_v2.png" />
            <path
               style="opacity:1;fill:#eba757;fill-opacity:1;fill-rule:nonzero;stroke:none;stroke-width:2.87315;stroke-linecap:round;stroke-linejoin:miter;stroke-miterlimit:4;stroke-dasharray:none;stroke-dashoffset:0;stroke-opacity:1"
               d="m 416.90378,185.98483 -203.08339,45.30325 45.23399,202.93658 h 124.02296 c 18.73991,0 33.82644,-15.08655 33.82644,-33.82646 z"
               id="rect4168"
               inkscape:connector-curvature="0"
               inkscape:export-xdpi="89"
               inkscape:export-ydpi="89"
               inkscape:export-filename="C:\Users\zwias_000\Downloads\logo_JAT_v2.png" />
            <path
               style="opacity:1;fill:#d85237;fill-opacity:1;fill-rule:nonzero;stroke:none;stroke-width:2.87315;stroke-linecap:round;stroke-linejoin:miter;stroke-miterlimit:4;stroke-dasharray:none;stroke-dashoffset:0;stroke-opacity:1"
               d="M 213.106,228.55798 10.307928,273.79751 v 123.87055 c 0,18.74003 15.086549,33.82644 33.826459,33.82644 H 258.34 Z"
               id="path4180"
               inkscape:connector-curvature="0"
               inkscape:export-xdpi="89"
               inkscape:export-ydpi="89"
               inkscape:export-filename="C:\Users\zwias_000\Downloads\logo_JAT_v2.png" />
            <path
               id="path4183"
               d="m 44.214726,21.966916 c -18.739909,0 -33.826461,15.086549 -33.826461,33.826446 V 276.65571 L 213.18635,231.41616 166.49803,21.966916 Z"
               style="opacity:1;fill:#5e90c7;fill-opacity:1;fill-rule:nonzero;stroke:none;stroke-width:2.87315;stroke-linecap:round;stroke-linejoin:miter;stroke-miterlimit:4;stroke-dasharray:none;stroke-dashoffset:0;stroke-opacity:1"
               inkscape:connector-curvature="0"
               inkscape:export-xdpi="89"
               inkscape:export-ydpi="89"
               inkscape:export-filename="C:\Users\zwias_000\Downloads\logo_JAT_v2.png" />
          </g>
          <path
             id="path4814"
             style="fill:#f2f2f2;stroke:none;stroke-width:11.0136"
             d="m 249.081,213.20708 c -17.66502,-0.001 -31.98656,14.3183 -31.98796,31.98355 0.0227,10.54629 5.24039,20.4041 13.95035,26.35071 2.69167,1.85635 5.65187,3.28901 8.77761,4.2481 3.00178,0.91481 6.12186,1.38289 9.26,1.38923 17.66528,-0.002 31.98478,-14.32276 31.98361,-31.98804 -8.3e-4,-17.66348 -14.31999,-31.98228 -31.98361,-31.98355 z m -102.9681,59.04451 c -8.17111,-0.4198 -14.54003,6.88398 -14.58913,16.04538 l 0.43759,154.73617 97.02257,45.99658 19.09629,8.9965 v 0.03 l 0.18292,0.085 0.0302,-0.015 0.0401,0.015 0.18293,-0.085 v -0.03 l 19.09637,-8.9965 97.02278,-45.99658 0.43759,-154.73617 c -0.0503,-9.1614 -6.41805,-16.46517 -14.58913,-16.04538 -21.3784,1.51508 -42.1971,7.19626 -63.33743,10.4885 -12.58356,2.64545 -25.77941,3.81926 -38.85355,3.75671 -13.07278,0.0623 -26.26703,-1.11159 -38.84946,-3.75671 -21.14011,-3.29224 -41.95904,-8.97342 -63.33714,-10.4885 z m 18.56477,35.91897 c 22.79427,6.3671 34.07268,8.75191 55.71199,10.79668 -0.0639,34.62598 -3.69487,76.81232 -19.5473,117.42353 l -35.59749,-18.80598 c 0.0401,-30.51878 -0.89768,-70.05236 -0.5672,-109.41423 z m 167.248,0 c 0.33033,39.36187 -0.6065,78.89545 -0.56719,109.41423 L 295.761,436.39077 c -15.85278,-40.61121 -19.48354,-82.79755 -19.54753,-117.42353 21.63931,-2.04477 32.91761,-4.42958 55.7122,-10.79668 z m -83.62617,81.41235 c 6.01917,19.35111 10.59202,41.2992 19.89589,60.3473 l -19.89589,10.44821 -19.89154,-10.44821 c 9.30346,-19.04764 13.87238,-40.99725 19.89154,-60.3473 z"
             sodipodi:nodetypes="ccccccccccccccccccccccccccccccccccccccccc" />
          <path
             d="M 482.76994,39.493412 H 138.41143 c -43.201204,0 -78.169304,34.717587 -78.795404,77.762398 l -0.1253,-0.15653 v 344.35847 c 0,43.57699 35.3437,78.92069 78.920704,78.92069 h 266.09522 c 17.28052,0 30.6479,-14.02478 30.6479,-31.30532 v -328.7058 c 0,-8.64025 -6.35498,-15.65264 -14.99525,-15.65264 H 138.41143 c -26.2651,0 -47.615304,-20.06671 -47.615304,-46.30058 0,-26.265161 21.350204,-47.61538 47.615304,-47.61538 h 328.04843 v 360.01113 c 0,8.60896 7.66981,15.65264 16.31008,15.65264 8.64025,0 14.99524,-7.04368 14.99524,-15.65264 V 55.14606 c 0,-8.640268 -6.35499,-15.652648 -14.99524,-15.652648 z M 138.41143,196.01998 h 265.46911 l 0.65742,313.05314 H 138.44273 c -26.2964,0 -47.646604,-21.35022 -47.646604,-47.61537 V 180.71168 c 13.148204,9.64205 29.583404,15.3083 47.615304,15.3083 z"
             id="path1575"
             style="fill:#ffffff;stroke-width:31.3053" />
        </g>
        <text
           xml:space="preserve"
           style="font-size:165.333px;line-height:0.8;font-family:Haettenschweiler;-inkscape-font-specification:'Haettenschweiler, Normal';fill:#ffffff;stroke-width:5.66929"
           x="480.48083"
           y="175.00093"
           id="text1937"><tspan
             sodipodi:role="line"
             id="tspan1935"
             x="480.48083"
             y="175.00093"
             style="font-style:normal;font-variant:normal;font-weight:normal;font-stretch:normal;font-size:128px;font-family:Haettenschweiler;-inkscape-font-specification:'Haettenschweiler, Normal';font-variant-ligatures:normal;font-variant-caps:normal;font-variant-numeric:normal;font-variant-east-asian:normal">Biblioteka</tspan><tspan
             sodipodi:role="line"
             x="480.48083"
             y="307.26733"
             id="tspan1939"
             style="font-style:normal;font-variant:normal;font-weight:normal;font-stretch:normal;font-size:128px;font-family:Haettenschweiler;-inkscape-font-specification:'Haettenschweiler, Normal';font-variant-ligatures:normal;font-variant-caps:normal;font-variant-numeric:normal;font-variant-east-asian:normal">Liderów</tspan><tspan
             sodipodi:role="line"
             x="480.48083"
             y="439.53372"
             id="tspan1941"
             style="font-style:normal;font-variant:normal;font-weight:normal;font-stretch:normal;font-size:128px;font-family:Haettenschweiler;-inkscape-font-specification:'Haettenschweiler, Normal';font-variant-ligatures:normal;font-variant-caps:normal;font-variant-numeric:normal;font-variant-east-asian:normal">Dostępności</tspan></text>
      </g>
      <text
         xml:space="preserve"
         style="font-style:normal;font-variant:normal;font-weight:bold;font-stretch:normal;font-size:48px;font-family:Arial;-inkscape-font-specification:'Arial, Bold';font-variant-ligatures:normal;font-variant-caps:normal;font-variant-numeric:normal;font-variant-east-asian:normal;fill:#ffffff;stroke-width:5.66929"
         x="693.97491"
         y="531.86261"
         id="text2057"><tspan
           sodipodi:role="line"
           id="tspan2055"
           x="693.97491"
           y="531.86261">biblio.ird.pl</tspan></text>
    </g>
  </g>
</svg>
