<?xml version="1.0" encoding="UTF-8" standalone="no"?>
<!-- Created with Inkscape (http://www.inkscape.org/) -->

<svg
   width="1000"
   height="600"
   viewBox="0 0 264.58331 158.75"
   version="1.1"
   id="svg19255"
   inkscape:version="1.2.1 (9c6d41e410, 2022-07-14)"
   sodipodi:docname="irdpl-pa11y.svg"
   xml:space="preserve"
   xmlns:inkscape="http://www.inkscape.org/namespaces/inkscape"
   xmlns:sodipodi="http://sodipodi.sourceforge.net/DTD/sodipodi-0.dtd"
   xmlns="http://www.w3.org/2000/svg"
   xmlns:svg="http://www.w3.org/2000/svg"><sodipodi:namedview
     id="namedview19257"
     pagecolor="#ffffff"
     bordercolor="#000000"
     borderopacity="0.25"
     inkscape:showpageshadow="2"
     inkscape:pageopacity="0.0"
     inkscape:pagecheckerboard="0"
     inkscape:deskcolor="#d1d1d1"
     inkscape:document-units="mm"
     showgrid="false"
     inkscape:zoom="0.52287011"
     inkscape:cx="483.86778"
     inkscape:cy="426.49215"
     inkscape:window-width="1920"
     inkscape:window-height="991"
     inkscape:window-x="-9"
     inkscape:window-y="-9"
     inkscape:window-maximized="1"
     inkscape:current-layer="layer1"
     showguides="true"><sodipodi:guide
       position="374.58246,64.323066"
       orientation="0,-1"
       id="guide2349"
       inkscape:locked="false" /><sodipodi:guide
       position="394.45006,12.979816"
       orientation="0,-1"
       id="guide2351"
       inkscape:locked="false" /><sodipodi:guide
       position="512.00441,40.146363"
       orientation="0,-1"
       id="guide2353"
       inkscape:locked="false" /><sodipodi:guide
       position="448.91855,3.827324"
       orientation="1,0"
       id="guide2682"
       inkscape:locked="false" /><sodipodi:guide
       position="509.86075,-2.4231586"
       orientation="1,0"
       id="guide2684"
       inkscape:locked="false" /><sodipodi:guide
       position="56.421353,44.705484"
       orientation="1,0"
       id="guide4489"
       inkscape:locked="false" /></sodipodi:namedview><defs
     id="defs19252" /><g
     inkscape:label="Warstwa 1"
     inkscape:groupmode="layer"
     id="layer1"><rect
       style="fill:#800066;stroke-width:1.4958;fill-opacity:1"
       id="rect1393"
       width="264.58334"
       height="158.75"
       x="0"
       y="0"
       inkscape:export-filename="irdpl-pa11y.png"
       inkscape:export-xdpi="96"
       inkscape:export-ydpi="96" /><text
       xml:space="preserve"
       style="font-style:normal;font-variant:normal;font-weight:normal;font-stretch:normal;font-size:38.1px;line-height:1.22;font-family:Haettenschweiler;-inkscape-font-specification:'Haettenschweiler, Normal';font-variant-ligatures:normal;font-variant-caps:normal;font-variant-numeric:normal;font-variant-east-asian:normal;fill:#ffffff;fill-opacity:1;stroke-width:1.4089"
       x="176.74187"
       y="-135.92546"
       id="text1812"
       transform="scale(1.0646614,0.93926577)"><tspan
         sodipodi:role="line"
         style="font-style:normal;font-variant:normal;font-weight:normal;font-stretch:normal;font-size:38.1px;font-family:Haettenschweiler;-inkscape-font-specification:'Haettenschweiler, Normal';font-variant-ligatures:normal;font-variant-caps:normal;font-variant-numeric:normal;font-variant-east-asian:normal;fill:#ffffff;stroke-width:1.4089"
         x="176.74187"
         y="-135.92546"
         id="tspan547">IRDPL.PL na GITHUB</tspan></text><text
       xml:space="preserve"
       style="font-style:normal;font-variant:normal;font-weight:normal;font-stretch:normal;font-size:12.7px;line-height:1.22;font-family:'Gill Sans MT Condensed';-inkscape-font-specification:'Gill Sans MT Condensed, Normal';font-variant-ligatures:normal;font-variant-caps:normal;font-variant-numeric:normal;font-variant-east-asian:normal;fill:#ffffff;fill-opacity:1;stroke-width:1.4089"
       x="121.6562"
       y="63.844955"
       id="text577"
       transform="scale(1.0646614,0.93926577)"><tspan
         sodipodi:role="line"
         style="font-style:normal;font-variant:normal;font-weight:normal;font-stretch:normal;font-size:12.7px;font-family:'Gill Sans MT Condensed';-inkscape-font-specification:'Gill Sans MT Condensed, Normal';font-variant-ligatures:normal;font-variant-caps:normal;font-variant-numeric:normal;font-variant-east-asian:normal;fill:#ffffff;stroke-width:1.4089"
         x="121.6562"
         y="63.844955"
         id="tspan575" /></text><g
       id="g4874"><g
         id="g4844"
         transform="matrix(1.0709716,0,0,1.0709716,-10.101132,-2.7566756)"><g
           id="g4068"
           transform="matrix(0.92276209,0,0,0.92276209,-380.85588,-41.245927)"><g
             id="g4048"><path
               id="rect1685"
               style="fill:#3498db;fill-opacity:1;stroke-width:1.52139"
               d="m 440.18171,67.527704 c -1.73138,0 -3.12539,1.393493 -3.12539,3.124874 v 14.286983 c 0,1.73138 1.39401,3.125391 3.12539,3.125391 h 8.81755 v 75.117378 c 0,1.73138 1.39401,3.12539 3.12539,3.12539 h 17.18862 c 1.73138,0 3.12539,-1.39401 3.12539,-3.12539 V 70.764199 c 0,-1.731382 -1.39401,-3.124874 -3.12539,-3.124874 h -0.44649 v -0.111621 z" /><path
               style="fill:#1f5b83;fill-opacity:1;stroke-width:1.5"
               d="m 472.38256,141.11213 0.0561,-6.06334 -23.53286,10.64156 z"
               id="path3650"
               sodipodi:nodetypes="cccc" /></g><g
             id="g4058"><g
               id="g4052"><path
                 id="path2085"
                 style="fill:#f39c12;fill-opacity:1;stroke-width:1.52139"
                 d="m 477.64132,67.527704 c -1.73138,0 -3.12539,1.393494 -3.12539,3.124874 v 14.286983 c 0,1.731378 1.39401,3.125391 3.12539,3.125391 h 8.81755 v 14.398098 h 23.4394 V 70.764199 c 0,-1.73138 -1.39402,-3.124874 -3.1254,-3.124874 h -0.44648 v -0.111621 z" /><path
                 style="fill:#925e0b;fill-opacity:1;stroke-width:1.5"
                 d="m 486.38694,97.745434 0.0186,5.426106 23.49273,-10.038065 z"
                 id="path2749"
                 sodipodi:nodetypes="cccc" /></g><path
               style="fill:#e74c3c;fill-opacity:1;stroke-width:1.5"
               d="m 509.89827,93.087543 -60.9927,25.671617 0.0602,26.88876 60.86422,-27.00904 z"
               id="path2481"
               sodipodi:nodetypes="ccccc" /></g></g><g
           id="g4653"
           transform="matrix(1.5489206,0,0,1.5489206,-20.941135,-71.352619)"><g
             id="g4082"
             transform="matrix(0.44041808,0,0,0.44041808,-88.556571,45.042661)"
             style="fill:#8ab958;fill-opacity:1"><path
               id="path4078"
               style="fill:#8ab958;fill-opacity:1;stroke-width:1.52139"
               d="m 440.18171,67.527704 c -1.73138,0 -3.12539,1.393493 -3.12539,3.124874 v 14.286983 c 0,1.73138 1.39401,3.125391 3.12539,3.125391 h 8.81755 v 75.117378 c 0,1.73138 1.39401,3.12539 3.12539,3.12539 h 17.18862 c 1.73138,0 3.12539,-1.39401 3.12539,-3.12539 V 70.764199 c 0,-1.731382 -1.39401,-3.124874 -3.12539,-3.124874 h -0.44649 v -0.111621 z" /><path
               style="fill:#8ab958;fill-opacity:1;stroke-width:1.5"
               d="m 472.38256,141.11213 0.0561,-6.06334 -23.53286,10.64156 z"
               id="path4080"
               sodipodi:nodetypes="cccc" /></g><g
             id="g4319"
             transform="matrix(0.44041808,0,0,0.44041808,-71.419161,45.042661)"
             style="fill:#8ab958;fill-opacity:1"><path
               id="path4315"
               style="fill:#8ab958;fill-opacity:1;stroke-width:1.52139"
               d="m 440.18171,67.527704 c -1.73138,0 -3.12539,1.393493 -3.12539,3.124874 v 14.286983 c 0,1.73138 1.39401,3.125391 3.12539,3.125391 h 8.81755 v 75.117378 c 0,1.73138 1.39401,3.12539 3.12539,3.12539 h 17.18862 c 1.73138,0 3.12539,-1.39401 3.12539,-3.12539 V 70.764199 c 0,-1.731382 -1.39401,-3.124874 -3.12539,-3.124874 h -0.44649 v -0.111621 z" /><path
               style="fill:#8ab958;fill-opacity:1;stroke-width:1.5"
               d="m 472.38256,141.11213 0.0561,-6.06334 -23.53286,10.64156 z"
               id="path4317"
               sodipodi:nodetypes="cccc" /></g><path
             id="path4321"
             style="fill:#f39c12;fill-opacity:1;stroke-width:0.670048"
             d="m 169.33,85.204331 c 0.76252,0 1.37683,0.613922 1.37683,1.376452 v 6.292028 c 0,0.762529 -0.61431,1.376835 -1.37683,1.376835 h -3.88334 v 13.500924 l 0.0413,0.0173 -0.0264,11.84215 -0.0149,-0.007 v 7.72922 c 0,0.76254 -0.61391,1.37646 -1.37644,1.37646 h -7.5703 c -0.76253,0 -1.37645,-0.61392 -1.37645,-1.37646 V 115.0221 l -16.46777,-7.30783 -0.0172,-6.51858 h -0.0126 v -4.734083 -9.831532 c 0,-0.76253 0.61392,-1.376453 1.37645,-1.376453 h 0.19637 v -0.04928 h 12.63371 c 0.76253,0 1.37646,0.613924 1.37646,1.376454 v 6.292028 c 0,0.76253 -0.61393,1.376835 -1.37646,1.376835 h -3.88371 v 6.556771 l 6.17474,2.59895 V 86.630065 c 0,-0.76253 0.61393,-1.376453 1.37646,-1.376453 h 0.19674 v -0.04928 z" /><g
             id="g4636"
             transform="translate(3.7951586,-0.25301057)"
             style="fill:#3498db;fill-opacity:1"><path
               style="fill:#3498db;fill-opacity:1;stroke-width:0.676777"
               d="m 98.561974,91.971419 -27.51897,11.582651 0.0272,12.13179 27.461,-12.18607 z"
               id="path4451"
               sodipodi:nodetypes="ccccc" /><g
               id="g4473"
               transform="matrix(-0.44041808,0,0,0.44041808,279.11353,45.243941)"
               style="fill:#3498db;fill-opacity:1"><path
                 id="path4469"
                 style="fill:#3498db;fill-opacity:1;stroke-width:1.52139"
                 d="m 426.53785,67.527704 c -1.73138,0 -3.12539,1.393493 -3.12539,3.124874 v 14.286983 c 0,1.73138 1.39401,3.125391 3.12539,3.125391 h 22.46141 v 75.117378 c 0,1.73138 1.39401,3.12539 3.12539,3.12539 h 17.18862 c 1.73138,0 3.12539,-1.39401 3.12539,-3.12539 V 70.764199 c 0,-1.731382 -1.39401,-3.124874 -3.12539,-3.124874 h -0.44649 v -0.111621 z"
                 sodipodi:nodetypes="sssscssssssccs" /><path
                 style="fill:#3498db;fill-opacity:1;stroke-width:1.5"
                 d="m 472.38256,141.11213 0.0561,-6.06334 -23.53286,10.64156 z"
                 id="path4471"
                 sodipodi:nodetypes="cccc" /></g><g
               id="g4485"
               transform="matrix(0.44041808,0,0,0.44041808,-109.50855,45.243941)"
               style="fill:#3498db;fill-opacity:1"><path
                 id="path4481"
                 style="fill:#3498db;fill-opacity:1;stroke-width:1.52139"
                 d="m 448.99926,88.064952 v 75.117378 c 0,1.73138 1.39401,3.12539 3.12539,3.12539 h 17.18862 c 1.73138,0 3.12539,-1.39401 3.12539,-3.12539 V 70.764199 c 0,-1.731382 -1.39401,-3.124874 -3.12539,-3.124874 h -0.44649 v -0.111621 h -20.27426 c -30.55995,0.307925 -33.47703,20.537248 0.40674,20.537248 z"
                 sodipodi:nodetypes="csssssscccc" /><path
                 style="fill:#3498db;fill-opacity:1;stroke-width:1.5"
                 d="m 472.38256,141.11213 0.0561,-6.06334 -23.53286,10.64156 z"
                 id="path4483"
                 sodipodi:nodetypes="cccc" /></g></g></g></g><text
         xml:space="preserve"
         style="font-style:normal;font-variant:normal;font-weight:normal;font-stretch:normal;font-size:30.6275px;font-family:Haettenschweiler;-inkscape-font-specification:'Haettenschweiler, Normal';font-variant-ligatures:normal;font-variant-caps:normal;font-variant-numeric:normal;font-variant-east-asian:normal;fill:#ffffff;fill-opacity:1;stroke-width:1.35653"
         x="109.17476"
         y="43.344296"
         id="text4786"
         transform="scale(1.1057622,0.90435357)"><tspan
           sodipodi:role="line"
           id="tspan4784"
           style="font-style:normal;font-variant:normal;font-weight:normal;font-stretch:normal;font-size:30.6275px;font-family:Haettenschweiler;-inkscape-font-specification:'Haettenschweiler, Normal';font-variant-ligatures:normal;font-variant-caps:normal;font-variant-numeric:normal;font-variant-east-asian:normal;fill:#ffffff;stroke-width:1.35653"
           x="109.17476"
           y="43.344296">Twój kumpel</tspan></text></g><text
       xml:space="preserve"
       style="font-style:normal;font-variant:normal;font-weight:normal;font-stretch:normal;font-size:14.1111px;font-family:Haettenschweiler;-inkscape-font-specification:'Haettenschweiler, Normal';font-variant-ligatures:normal;font-variant-caps:normal;font-variant-numeric:normal;font-variant-east-asian:normal;fill:#ffffff;fill-opacity:1;stroke-width:1.35653"
       x="23.338722"
       y="147.97809"
       id="text4790"
       transform="scale(1.1057622,0.90435357)"><tspan
         sodipodi:role="line"
         id="tspan4788"
         style="font-style:normal;font-variant:normal;font-weight:normal;font-stretch:normal;font-size:14.1111px;font-family:Haettenschweiler;-inkscape-font-specification:'Haettenschweiler, Normal';font-variant-ligatures:normal;font-variant-caps:normal;font-variant-numeric:normal;font-variant-east-asian:normal;fill:#ffffff;stroke-width:1.35653"
         x="23.338722"
         y="147.97809">w automatycznych testach dostępności</tspan></text></g></svg>
