<?xml version="1.0" encoding="UTF-8" standalone="no"?>
<!-- Created with Inkscape (http://www.inkscape.org/) -->

<svg
   version="1.1"
   id="svg795"
   width="1000"
   height="600"
   viewBox="0 0 1000 600"
   sodipodi:docname="wcag-po-polsku.svg"
   inkscape:version="1.2.1 (9c6d41e410, 2022-07-14)"
   xmlns:inkscape="http://www.inkscape.org/namespaces/inkscape"
   xmlns:sodipodi="http://sodipodi.sourceforge.net/DTD/sodipodi-0.dtd"
   xmlns="http://www.w3.org/2000/svg"
   xmlns:svg="http://www.w3.org/2000/svg">
  <defs
     id="defs799" />
  <sodipodi:namedview
     id="namedview797"
     pagecolor="#ffffff"
     bordercolor="#000000"
     borderopacity="0.25"
     inkscape:showpageshadow="2"
     inkscape:pageopacity="0.0"
     inkscape:pagecheckerboard="0"
     inkscape:deskcolor="#d1d1d1"
     showgrid="false"
     inkscape:zoom="0.44665578"
     inkscape:cx="282.09643"
     inkscape:cy="-53.732652"
     inkscape:window-width="1920"
     inkscape:window-height="991"
     inkscape:window-x="-9"
     inkscape:window-y="-9"
     inkscape:window-maximized="1"
     inkscape:current-layer="g801" />
  <g
     inkscape:groupmode="layer"
     inkscape:label="Image"
     id="g801">
    <rect
       style="fill:#800066;fill-opacity:1;stroke-width:5.65342"
       id="rect1393"
       width="1000.0001"
       height="600"
       x="3.7436111"
       y="0.0073060622"
       inkscape:export-filename="..\..\..\irdpl-biblio1.png"
       inkscape:export-xdpi="96"
       inkscape:export-ydpi="96" />
    <g
       id="g782"
       transform="matrix(2.7249748,0,0,2.7249748,1195.2596,206.13774)">
      <g
         id="g19236"
         transform="matrix(0.26437139,0,0,0.26437139,-201.36075,9.1782447)">
        <path
           style="opacity:1;fill:#8ab958;fill-opacity:1;fill-rule:nonzero;stroke:none;stroke-width:2.87315;stroke-linecap:round;stroke-linejoin:miter;stroke-miterlimit:4;stroke-dasharray:none;stroke-dashoffset:0;stroke-opacity:1"
           d="m 165.51439,24.704089 25.24172,113.230401 22.22225,96.29641 203.42691,-45.38081 V 58.530547 c 0,-18.739893 -15.08654,-33.826458 -33.82646,-33.826458 z"
           id="path4171-8"
           inkscape:connector-curvature="0"
           inkscape:export-xdpi="89"
           inkscape:export-ydpi="89"
           inkscape:export-filename="C:\Users\zwias_000\Downloads\logo_JAT_v2.png" />
        <path
           style="opacity:1;fill:#eba757;fill-opacity:1;fill-rule:nonzero;stroke:none;stroke-width:2.87315;stroke-linecap:round;stroke-linejoin:miter;stroke-miterlimit:4;stroke-dasharray:none;stroke-dashoffset:0;stroke-opacity:1"
           d="m 416.90378,185.98483 -203.08339,45.30325 45.23399,202.93658 h 124.02296 c 18.73991,0 33.82644,-15.08655 33.82644,-33.82646 z"
           id="rect4168-0"
           inkscape:connector-curvature="0"
           inkscape:export-xdpi="89"
           inkscape:export-ydpi="89"
           inkscape:export-filename="C:\Users\zwias_000\Downloads\logo_JAT_v2.png" />
        <path
           style="opacity:1;fill:#d85237;fill-opacity:1;fill-rule:nonzero;stroke:none;stroke-width:2.87315;stroke-linecap:round;stroke-linejoin:miter;stroke-miterlimit:4;stroke-dasharray:none;stroke-dashoffset:0;stroke-opacity:1"
           d="M 213.106,228.55798 10.307928,273.79751 v 123.87055 c 0,18.74003 15.086549,33.82644 33.826459,33.82644 H 258.34 Z"
           id="path4180-7"
           inkscape:connector-curvature="0"
           inkscape:export-xdpi="89"
           inkscape:export-ydpi="89"
           inkscape:export-filename="C:\Users\zwias_000\Downloads\logo_JAT_v2.png" />
        <path
           id="path4183-2"
           d="m 44.214726,21.966916 c -18.739909,0 -33.826461,15.086549 -33.826461,33.826446 V 276.65571 L 213.18635,231.41616 166.49803,21.966916 Z"
           style="opacity:1;fill:#5e90c7;fill-opacity:1;fill-rule:nonzero;stroke:none;stroke-width:2.87315;stroke-linecap:round;stroke-linejoin:miter;stroke-miterlimit:4;stroke-dasharray:none;stroke-dashoffset:0;stroke-opacity:1"
           inkscape:connector-curvature="0"
           inkscape:export-xdpi="89"
           inkscape:export-ydpi="89"
           inkscape:export-filename="C:\Users\zwias_000\Downloads\logo_JAT_v2.png" />
      </g>
      <path
         id="path4814-1"
         style="fill:#f2f2f2;stroke:none;stroke-width:2.80866"
         d="m -147.92857,33.425089 c -4.50487,-2.89e-4 -8.15709,3.651407 -8.15745,8.156334 0.006,2.689477 1.33639,5.20338 3.55757,6.71986 0.68642,0.473399 1.44132,0.838751 2.23843,1.083336 0.76551,0.23329 1.56117,0.352657 2.36145,0.354275 4.50494,-4.33e-4 8.15665,-3.652534 8.15634,-8.157471 -2.1e-4,-4.504476 -3.65182,-8.15601 -8.15634,-8.156334 z m -26.25854,15.057319 c -2.08377,-0.107056 -3.70795,1.755528 -3.72047,4.091834 l 0.11159,39.460244 24.74235,11.729884 4.86986,2.29424 v 0.007 l 0.0467,0.0216 0.007,-0.005 0.0102,0.005 0.0467,-0.0216 v -0.007 l 4.86988,-2.29424 24.7424,-11.729884 0.11159,-39.460244 c -0.0128,-2.336306 -1.63671,-4.198887 -3.72047,-4.091834 -5.45184,0.386369 -10.76095,1.835165 -16.15208,2.674739 -3.20902,0.674634 -6.57416,0.973974 -9.90828,0.958022 -3.33378,0.01588 -6.69854,-0.283473 -9.90726,-0.958022 -5.39107,-0.839574 -10.70024,-2.28837 -16.152,-2.674739 z m 4.73432,9.159926 c 5.81291,1.623713 8.68908,2.231878 14.20747,2.75333 -0.0163,8.83019 -0.94225,19.588397 -4.98489,29.944919 l -9.07794,-4.795833 c 0.0102,-7.782787 -0.22892,-17.864496 -0.14464,-27.902416 z m 42.65096,0 c 0.0843,10.03792 -0.15466,20.119629 -0.14463,27.902416 l -9.07794,4.795833 c -4.04272,-10.356522 -4.96862,-21.114729 -4.98494,-29.944919 5.51838,-0.521452 8.39452,-1.129617 14.20751,-2.75333 z m -21.32603,20.761481 c 1.53498,4.934848 2.70113,10.531973 5.07377,15.38954 l -5.07377,2.66446 -5.07267,-2.66446 c 2.37253,-4.857457 3.53768,-10.454962 5.07267,-15.38954 z"
         sodipodi:nodetypes="ccccccccccccccccccccccccccccccccccccccccc" />
      <path
         style="fill:#ffffff;stroke-width:2.43265"
         d="m -105.57946,78.889815 14.595915,-14.595912 v 45.043037 c 0,12.09268 -9.801195,21.89387 -21.893875,21.89387 h -72.97957 c -12.09268,0 -21.89387,-9.80119 -21.89387,-21.89387 V 36.357367 c 0,-12.092765 9.80119,-21.893903 21.89387,-21.893903 h 45.04295 l -14.59592,14.595952 h -30.44703 c -4.03573,0 -7.29796,3.262128 -7.29796,7.297951 v 72.979573 c 0,4.03574 3.26223,7.29796 7.29796,7.29796 h 72.97957 c 4.03574,0 7.29796,-3.26222 7.29796,-7.29796 z"
         id="path4501" />
    </g>
    <text
       xml:space="preserve"
       style="font-style:normal;font-variant:normal;font-weight:normal;font-stretch:normal;font-size:228.749px;font-family:Haettenschweiler;-inkscape-font-specification:'Haettenschweiler, Normal';font-variant-ligatures:normal;font-variant-caps:normal;font-variant-numeric:normal;font-variant-east-asian:normal;text-align:end;text-anchor:end;fill:#f2f2f2;stroke-width:6.23483"
       x="863.79059"
       y="226.52213"
       id="text1129"
       transform="scale(1.0997545,0.90929385)"><tspan
         sodipodi:role="line"
         id="tspan1127"
         x="863.79059"
         y="226.52213"
         style="stroke-width:6.23483">CAŁY WCAG</tspan></text>
    <text
       xml:space="preserve"
       style="font-style:normal;font-variant:normal;font-weight:normal;font-stretch:normal;font-size:186.639px;line-height:0.9;font-family:Haettenschweiler;-inkscape-font-specification:'Haettenschweiler, Normal';font-variant-ligatures:normal;font-variant-caps:normal;font-variant-numeric:normal;font-variant-east-asian:normal;text-align:start;text-anchor:start;fill:#f2f2f2;stroke-width:6.39988"
       x="42.889553"
       y="467.22644"
       id="text1187"
       transform="scale(1.1288681,0.88584311)"><tspan
         sodipodi:role="line"
         x="42.889553"
         y="467.22644"
         id="tspan1189"
         style="stroke-width:6.39988">PO </tspan><tspan
         sodipodi:role="line"
         x="42.889553"
         y="635.20166"
         id="tspan1193"
         style="stroke-width:6.39988">POLSKU</tspan></text>
  </g>
</svg>
