<?xml version="1.0" encoding="UTF-8" standalone="no"?>
<!-- Created with Inkscape (http://www.inkscape.org/) -->

<svg
   width="408"
   height="414"
   viewBox="0 0 107.94999 109.5375"
   version="1.1"
   id="svg19255"
   inkscape:version="1.2.1 (9c6d41e410, 2022-07-14)"
   sodipodi:docname="irdpl.svg"
   xmlns:inkscape="http://www.inkscape.org/namespaces/inkscape"
   xmlns:sodipodi="http://sodipodi.sourceforge.net/DTD/sodipodi-0.dtd"
   xmlns="http://www.w3.org/2000/svg"
   xmlns:svg="http://www.w3.org/2000/svg">
  <sodipodi:namedview
     id="namedview19257"
     pagecolor="#ffffff"
     bordercolor="#000000"
     borderopacity="0.25"
     inkscape:showpageshadow="2"
     inkscape:pageopacity="0.0"
     inkscape:pagecheckerboard="0"
     inkscape:deskcolor="#d1d1d1"
     inkscape:document-units="mm"
     showgrid="false"
     inkscape:zoom="0.67526655"
     inkscape:cx="348.75117"
     inkscape:cy="205.84464"
     inkscape:window-width="1920"
     inkscape:window-height="991"
     inkscape:window-x="-9"
     inkscape:window-y="-9"
     inkscape:window-maximized="1"
     inkscape:current-layer="layer1" />
  <defs
     id="defs19252" />
  <g
     inkscape:label="Warstwa 1"
     inkscape:groupmode="layer"
     id="layer1">
    <g
       id="g19236"
       transform="matrix(0.26458333,0,0,0.26458333,-2.0534876,-5.8872825)">
      <path
         style="opacity:1;fill:#8ab958;fill-opacity:1;fill-rule:nonzero;stroke:none;stroke-width:2.87315;stroke-linecap:round;stroke-linejoin:miter;stroke-miterlimit:4;stroke-dasharray:none;stroke-dashoffset:0;stroke-opacity:1"
         d="m 165.51439,24.704089 25.24172,113.230401 22.22225,96.29641 203.42691,-45.38081 V 58.530547 c 0,-18.739893 -15.08654,-33.826458 -33.82646,-33.826458 z"
         id="path4171"
         inkscape:connector-curvature="0"
         inkscape:export-xdpi="89"
         inkscape:export-ydpi="89"
         inkscape:export-filename="C:\Users\zwias_000\Downloads\logo_JAT_v2.png" />
      <path
         style="opacity:1;fill:#eba757;fill-opacity:1;fill-rule:nonzero;stroke:none;stroke-width:2.87315;stroke-linecap:round;stroke-linejoin:miter;stroke-miterlimit:4;stroke-dasharray:none;stroke-dashoffset:0;stroke-opacity:1"
         d="m 416.90378,185.98483 -203.08339,45.30325 45.23399,202.93658 h 124.02296 c 18.73991,0 33.82644,-15.08655 33.82644,-33.82646 z"
         id="rect4168"
         inkscape:connector-curvature="0"
         inkscape:export-xdpi="89"
         inkscape:export-ydpi="89"
         inkscape:export-filename="C:\Users\zwias_000\Downloads\logo_JAT_v2.png" />
      <path
         style="opacity:1;fill:#d85237;fill-opacity:1;fill-rule:nonzero;stroke:none;stroke-width:2.87315;stroke-linecap:round;stroke-linejoin:miter;stroke-miterlimit:4;stroke-dasharray:none;stroke-dashoffset:0;stroke-opacity:1"
         d="M 213.106,228.55798 10.307928,273.79751 v 123.87055 c 0,18.74003 15.086549,33.82644 33.826459,33.82644 H 258.34 Z"
         id="path4180"
         inkscape:connector-curvature="0"
         inkscape:export-xdpi="89"
         inkscape:export-ydpi="89"
         inkscape:export-filename="C:\Users\zwias_000\Downloads\logo_JAT_v2.png" />
      <path
         id="path4183"
         d="m 44.214726,21.966916 c -18.739909,0 -33.826461,15.086549 -33.826461,33.826446 V 276.65571 L 213.18635,231.41616 166.49803,21.966916 Z"
         style="opacity:1;fill:#5e90c7;fill-opacity:1;fill-rule:nonzero;stroke:none;stroke-width:2.87315;stroke-linecap:round;stroke-linejoin:miter;stroke-miterlimit:4;stroke-dasharray:none;stroke-dashoffset:0;stroke-opacity:1"
         inkscape:connector-curvature="0"
         inkscape:export-xdpi="89"
         inkscape:export-ydpi="89"
         inkscape:export-filename="C:\Users\zwias_000\Downloads\logo_JAT_v2.png" />
    </g>
    <path
       id="path4814"
       style="fill:#f2f2f2;stroke:none;stroke-width:3.43768"
       d="m 53.858878,9.0836295 c -5.513801,-3.5e-4 -9.983989,4.4691795 -9.984418,9.9830395 0.0072,3.29182 1.635692,6.36874 4.35433,8.22486 0.840153,0.57942 1.764118,1.0266 2.739766,1.32596 0.936953,0.28554 1.910818,0.43164 2.890322,0.43362 5.513869,-5.3e-4 9.983419,-4.47057 9.983059,-9.98444 -2.64e-4,-5.51331 -4.469691,-9.9826395 -9.983059,-9.9830395 z M 21.719394,27.513219 c -2.550447,-0.13103 -4.538365,2.1487 -4.553712,5.00825 l 0.136634,48.297861 30.283704,14.3569 5.960538,2.80808 v 0.0111 l 0.05711,0.0265 0.01143,-0.006 0.01214,0.006 0.05711,-0.0265 v -0.0111 l 5.960541,-2.80808 30.283773,-14.3569 0.13664,-48.297861 c -0.015,-2.85955 -2.00327,-5.13928 -4.55372,-5.00825 -6.67284,0.4729 -13.17099,2.24617 -19.769518,3.27377 -3.927721,0.82573 -8.046543,1.19212 -12.127389,1.17259 -4.080415,0.0194 -8.198739,-0.34696 -12.126103,-1.17259 -6.598454,-1.0276 -13.096681,-2.80087 -19.769448,-3.27377 z m 5.794638,11.2114 c 7.114794,1.98737 10.63511,2.73174 17.389401,3.36998 -0.02,10.807811 -1.153258,23.975451 -6.101313,36.651441 L 27.691068,72.87612 c 0.01214,-9.52583 -0.280194,-21.86547 -0.177036,-34.151501 z m 52.20319,0 c 0.10315,12.286031 -0.18932,24.625671 -0.17704,34.151501 l -11.11105,5.86992 C 63.481006,66.07005 62.347735,52.90241 62.327748,42.094599 c 6.754294,-0.63824 10.274604,-1.38261 17.389474,-3.36998 z M 53.614948,64.13588 c 1.878766,6.04007 3.306079,12.89075 6.210109,18.83622 l -6.210109,3.26122 -6.208752,-3.26122 c 2.903886,-5.94533 4.329988,-12.79647 6.208752,-18.83622 z"
       sodipodi:nodetypes="ccccccccccccccccccccccccccccccccccccccccc" />
  </g>
</svg>
