<?xml version="1.0" encoding="UTF-8"?>
<svg width="24px" height="24px" version="1.1" viewBox="0 0 24 24" xmlns="http://www.w3.org/2000/svg">
 <style type="text/css">.st0{fill:#515151;}</style>
 <path d="m12.061 0.81871c-1.3864-9.29e-5 -2.5104 1.1237-2.5105 2.5101 0.00165 0.82769 0.41128 1.6014 1.0949 2.0681 0.21124 0.14569 0.44357 0.25813 0.68888 0.3334 0.23559 0.071801 0.48046 0.10853 0.72675 0.10903 1.3864-1.016e-4 2.5102-1.1241 2.5101-2.5105-1.02e-4 -1.3863-1.1239-2.51-2.5101-2.5101zm-8.0812 4.6339c-0.64128-0.032944-1.1411 0.54027-1.145 1.2593l0.03436 12.144 7.6145 3.6099 1.4987 0.70606v0.0028l0.01438 0.0066 0.0028-0.0015 0.0032 0.0015 0.01437-0.0066v-0.0028l1.4987-0.70606 7.6145-3.6099 0.03436-12.144c-0.0039-0.71901-0.5037-1.2922-1.145-1.2593-1.6778 0.11891-3.3117 0.56478-4.9708 0.82316-0.9876 0.20762-2.0232 0.29975-3.0493 0.29484-1.026 0.00486-2.0615-0.087239-3.0489-0.29484-1.6591-0.25838-3.293-0.70425-4.9709-0.82316zm1.457 2.819c1.789 0.4997 2.6741 0.68687 4.3724 0.84735-0.0050433 2.7175-0.28998 6.0284-1.5341 9.2156l-2.7938-1.4759c0.00309-2.3952-0.070458-5.4979-0.044525-8.587zm13.126 0c0.02594 3.0892-0.04761 6.1919-0.04452 8.587l-2.7938 1.4759c-1.2442-3.1873-1.5291-6.4981-1.5341-9.2156 1.6983-0.16048 2.5834-0.34764 4.3724-0.84735zm-6.5632 6.3894c0.4724 1.5187 0.8313 3.2413 1.5615 4.7362l-1.5615 0.82-1.5611-0.82c0.73016-1.4949 1.0887-3.2175 1.5611-4.7362z" fill="#800066"/>
</svg>
